<svg width="629" height="78" viewBox="0 0 629 78" fill="none" xmlns="http://www.w3.org/2000/svg">
<g clip-path="url(#clip0_172_172)">
<path d="M60.4492 59.8786C71.3114 61.9652 82.5949 63.7901 94.0363 65.5063C105.696 67.2546 117.431 68.9338 129.7 70.1907C132.498 70.4771 135.236 70.934 138.125 71.0328C140.321 71.1068 141.728 71.6377 143.759 71.7365C144.992 71.7983 146.196 71.9291 147.415 72.0353C147.934 72.0798 148.34 72.1736 148.821 71.9489C149.258 71.7464 149.167 71.8205 149.619 72.0946C150.258 72.4872 151.582 72.5094 152.778 72.386C153.259 72.3366 153.605 72.1464 154.23 72.1934C155.29 72.2724 154.2 72.4971 154.478 72.5983C154.719 72.6848 155.163 72.7638 155.509 72.7613C157.675 72.744 159.586 73.1292 161.737 73.1638C162.534 73.1762 163.242 73.2305 163.986 73.0996C164.814 72.9539 165.25 72.9292 165.98 73.2873C166.958 73.7688 168.974 73.7984 170.546 73.596C171.509 73.4725 172.389 73.4453 172.93 73.6207C174.585 74.159 176.488 74.1664 178.527 74.0404C181.205 73.875 183.582 74.3318 186.139 74.4232C188.313 74.5022 190.45 74.7121 192.676 74.6578C193.827 74.6306 194.895 74.6726 195.557 75.043C195.813 75.1887 196.152 75.2924 196.701 75.2406C201.312 74.8183 205.75 75.4159 210.241 75.5418C213.22 75.6258 216.296 75.5838 219.222 75.8653C219.907 75.932 220.915 75.8233 221.043 76.2184C221.088 76.3493 221.63 76.3913 221.727 76.3271C222.984 75.4924 223.661 76.0159 224.428 76.4333C224.496 76.4728 224.977 76.4901 225.052 76.458C227.392 75.5566 230.198 76.2925 232.695 76.2876C237.291 76.2752 241.887 76.537 246.483 76.6777C249.756 76.7765 253.035 76.9247 256.315 76.942C258.639 76.9518 260.964 76.9469 263.296 76.9617C272.902 77.021 282.5 77.1741 292.114 77.1889C295.581 77.1938 299.109 77.1815 302.6 77.2309C306.105 77.2778 309.738 77.2778 313.311 77.2309C316.343 77.1914 319.502 77.1741 322.602 77.2679C325.633 77.3617 328.649 77.0432 331.719 77.1963C332.937 77.258 334.223 77.1444 335.48 77.1494C343.198 77.1864 350.9 76.9815 358.618 76.9592C366.532 76.9345 374.453 76.7197 382.351 76.5098C389.919 76.3073 397.479 76.0233 405.031 75.806C412.38 75.5937 419.654 75.2282 426.951 74.9344C434.481 74.6306 441.98 74.1985 449.413 73.6898C462.84 72.7712 476.26 71.8279 489.582 70.7586C503.152 69.6697 516.594 68.4053 529.916 67.0225C541.749 65.7927 553.536 64.5136 565 62.9382C566.708 62.7036 566.896 62.9209 566.339 63.432C574.794 62.3751 582.73 61.1405 590.253 59.6218C590.726 59.5255 591.133 59.3971 591.75 59.4391C595.428 58.7748 598.64 57.913 601.619 56.9499C601.491 56.703 602.025 56.5672 602.476 56.4314C605.726 55.4436 608.569 54.3324 611.247 53.1866C613.865 52.068 614.55 50.7 615.294 49.3467C616.919 46.3958 613.301 43.9042 609.164 41.425C604.665 38.726 598.595 36.4295 592.216 34.2293C588.846 33.0662 585.152 31.992 581.309 30.9697C577.728 30.0165 574.14 29.0609 570.492 28.1324C570.048 28.0188 569.258 27.8756 569.687 27.6434C569.995 27.478 570.695 27.5545 571.214 27.6311C578.036 28.6361 584.859 29.6436 591.674 30.6561C591.855 30.6832 591.953 30.7721 592.088 30.8314C592.351 30.8857 592.607 30.9499 592.885 30.9919C601.867 32.3328 610.653 33.7922 619.274 35.375C621.613 35.8047 623.637 36.3924 626.172 36.7209C627.24 36.8591 628.037 36.8172 628.692 36.5505C629.444 36.2443 628.661 36.0319 628.12 35.8121C626.706 35.2442 624.968 34.8046 623.11 34.4046C617.89 33.281 612.285 32.3748 606.839 31.3845C588.462 28.0435 569.235 25.2728 550.317 22.2923C537.01 20.1958 523.184 18.4969 509.839 16.4276C497.992 14.5928 485.926 12.9359 473.484 11.5777C450.375 9.05896 426.658 7.35263 402.812 5.82162C374.806 4.02392 346.522 2.84109 318.148 1.86569C301.065 1.27798 283.982 0.660633 266.831 0.342084C245.001 -0.0653617 223.134 -0.0505454 201.282 0.105025C167.108 0.349493 133.077 1.22118 99.2041 2.76207C79.6311 3.65351 60.3289 4.91783 41.493 6.90814C35.0765 7.58722 28.848 8.37248 24.6506 10.2566C24.5077 10.7826 25.3276 10.9999 26.802 11.1802C33.5119 11.9975 40.2895 11.8543 47.2476 11.6172C55.0633 11.3505 62.7285 10.8517 70.4539 10.4443C75.554 10.1751 80.6316 9.85163 85.7467 9.60716C91.4035 9.33553 97.0829 9.12563 102.755 8.89104C108.269 8.66139 113.782 8.4194 119.304 8.2095C124.201 8.0243 129.06 7.74526 133.995 7.6292C138.99 7.51314 143.954 7.25385 148.942 7.09334C152.221 6.98716 155.516 6.94271 158.803 6.86863C167.093 6.68096 175.398 6.52786 183.68 6.27845C187.561 6.16239 191.54 6.36241 195.384 6.19449C199.935 5.99447 204.501 6.2587 209.03 5.97719C211.384 5.83149 213.844 5.96237 216.251 5.95496C228.324 5.91545 240.405 5.91298 252.479 5.94509C260.776 5.96484 269.043 6.24635 277.347 6.27598C279.198 6.28339 281.086 6.40933 282.974 6.41674C283.478 6.41921 283.997 6.49576 284.005 6.66861C284.02 6.88592 283.388 6.86616 282.936 6.86369C280.507 6.84888 278.039 6.75751 275.662 6.77233C272.578 6.79208 269.471 7.03655 266.335 7.09828C265.793 7.10816 265.251 7.18224 264.71 7.17483C257.3 7.081 249.906 7.30818 242.504 7.37485C235.854 7.43412 229.22 7.73538 222.585 7.93787C217.507 8.09344 212.422 8.22678 207.367 8.43668C199.431 8.76758 191.525 9.15033 183.604 9.5232C173.194 10.0121 162.88 10.6739 152.597 11.39C143.322 12.037 134.025 12.6717 124.848 13.4495C119.236 13.9261 113.647 14.4521 108.043 14.9484C88.3043 16.7511 69.5512 19.3562 51.5579 22.5491C41.5005 24.332 32.1127 26.468 23.0784 28.7645C22.7098 28.8584 22.4089 28.9893 21.8523 28.9448C14.3149 30.9104 7.92098 33.2193 3.07662 35.9479C0.233189 37.5481 -0.534086 39.3433 0.376112 41.1805C1.21109 42.8548 3.90407 44.2747 6.66476 45.655C11.6821 48.1614 18.0385 50.2802 24.9891 52.2063C35.4225 55.1028 46.7135 57.5944 58.6815 59.7502C59.3359 59.7057 59.8775 59.77 60.4643 59.8811L60.4492 59.8786ZM44.5847 50.937C38.3562 49.127 32.6844 47.1613 28.2162 44.8426C26.6064 44.0055 25.1771 43.1239 24.4174 42.1757C22.7775 40.1286 24.3647 38.2519 28.3139 36.6418C33.1583 34.6639 39.4545 33.2143 45.7883 31.7969C48.391 31.2142 51.0012 30.6388 53.6115 30.0585C55.8004 29.1991 59.02 28.846 61.8258 28.3077C71.6424 26.4285 82.0909 24.9666 92.5243 23.5072C93.7129 23.3418 95.0744 23.285 95.4355 22.7269C95.616 22.4528 96.7669 22.3862 97.5643 22.2874C111.857 20.5465 126.42 19.0945 141.201 17.8573C151.92 16.9585 162.722 16.193 173.562 15.4941C183.236 14.8719 193.03 14.4397 202.719 13.8421C212.505 13.2371 222.427 12.9902 232.259 12.5013C237.825 12.2247 243.489 12.1407 249.116 11.9975C255.683 11.8296 262.265 11.5629 268.825 11.5876C273.18 11.6024 277.498 11.432 281.861 11.4814C285.005 11.516 288.217 11.3851 291.391 11.4073C297.5 11.4518 303.63 11.1999 309.723 11.4938C311.777 11.5925 313.74 11.2987 315.816 11.3678C323.527 11.6271 331.29 11.4987 339.023 11.637C341.407 11.679 343.724 11.7926 346.064 11.8913C346.297 11.9012 346.56 11.9778 346.733 11.9555C349.795 11.558 352.939 12.0617 355.963 11.8666C357.723 11.7506 358.927 12.1185 360.469 12.1827C363.35 12.2988 366.223 12.1975 369.097 12.2519C377.725 12.4124 386.24 12.884 394.838 13.131C405.911 13.447 416.969 13.8718 427.989 14.4101C438.302 14.9138 448.66 15.2867 458.861 16.0201C468.549 16.7165 478.11 17.5882 487.34 18.7414C495.607 19.776 503.799 20.9045 511.72 22.2355C517.038 23.1294 522.311 24.0505 527.592 24.9666C528.667 25.1543 529.931 25.2901 530.495 25.705C537.461 27.1718 544.389 28.6509 550.791 30.382C564.308 34.0391 576.118 38.163 584.272 43.3165C587.214 45.176 588.914 47.0774 587.672 49.2134C586.792 50.7222 584.175 51.7865 580.707 52.6878C572.959 54.7003 564.128 56.061 555.041 57.2833C531.263 60.4885 506.725 62.9036 481.886 65.0272C465.931 66.3903 449.834 67.5534 433.638 68.5535C415.728 69.6598 397.636 70.329 379.47 70.8229C350.269 71.6155 321.022 71.8649 291.745 71.8872C274.542 71.902 257.338 71.7415 240.172 71.4056C226.963 71.1488 213.806 70.5932 200.642 70.1339C185.891 69.6203 171.268 68.8227 156.75 67.8399C140.035 66.7064 123.749 65.0964 107.892 63.0024C96.1651 61.4541 84.671 59.7428 73.6584 57.713C63.2475 55.7967 53.5362 53.5397 44.5847 50.937Z" fill="#FFDDE2"/>
<path d="M410.071 76.5142C430.863 75.7956 451.368 74.514 471.761 73.0176C492.087 71.5261 512.179 69.7482 532.007 67.6591C548.083 65.9651 564.045 64.1674 579.368 61.819C583.708 61.1547 588.041 60.4707 591.735 59.4336C584.069 61.0387 575.908 62.3178 567.468 63.4142C567.174 63.4513 566.776 63.5525 566.595 63.5081C563.955 62.824 561.833 63.6044 559.81 63.8612C543.517 65.9182 526.855 67.5949 510.08 69.1604C485.317 71.4693 460.252 73.3584 434.864 74.761C421.023 75.5265 407.069 76.0549 393.07 76.4278C382.787 76.7019 372.489 76.9266 362.169 77.0772C351.931 77.2254 341.686 77.3316 331.448 77.4057C323.279 77.4649 315.109 77.4822 306.925 77.4477C299.779 77.418 292.625 77.3267 285.464 77.3588C277.107 77.3933 268.764 77.1414 260.415 77.1118C249.598 77.0698 238.893 76.6278 228.144 76.3513C227.753 76.3414 227.332 76.2994 226.97 76.3513C224.308 76.7118 221.825 76.4673 219.365 76.1241C218.553 76.0105 217.688 75.9858 216.815 75.971C211.851 75.8796 206.954 75.5932 202.027 75.4129C200.387 75.3512 198.754 75.2203 197.099 75.3758C196.716 75.4129 196.189 75.4401 195.948 75.3561C194.075 74.6869 191.533 74.9561 189.284 74.8202C186.877 74.6745 184.424 74.6153 182.092 74.3486C180.084 74.1189 177.925 74.5165 176.014 74.2473C172.351 73.7312 168.319 73.8868 164.543 73.4176C162.249 73.1337 159.322 73.1682 156.765 72.9411C151.642 72.4817 146.301 72.2397 141.404 71.578C139.464 71.3162 137.448 71.2619 135.544 71.0075C133.378 70.7161 131.091 70.5087 128.865 70.2519C126.706 70.0025 124.502 69.7975 122.365 69.5308C120.161 69.2543 117.965 68.9678 115.768 68.6814C113.579 68.3949 111.315 68.1505 109.149 67.8492C102.266 66.8911 95.4505 65.8762 88.6804 64.8316C79.9771 63.4908 71.4544 62.0338 62.9843 60.5399C61.5325 60.2831 60.2612 59.9176 58.6589 59.7521C61.2993 60.4609 64.4135 60.9103 67.3848 61.4313C91.569 65.6811 116.528 69.3234 142.894 71.8817C156.449 73.1954 170.245 74.1634 184.138 74.9709C195.302 75.6178 206.585 76.0426 217.853 76.4797C240.902 77.3785 264.033 77.8502 287.232 77.9391C308.595 78.023 329.966 78.0625 351.329 77.8131C370.955 77.5859 390.535 77.1933 410.063 76.5192L410.071 76.5142ZM559.885 64.0834C559.885 64.0834 559.885 64.0834 559.893 64.081H559.908C560.848 63.6216 562.548 63.7599 563.849 63.5846C562.796 63.955 561.435 64.0859 559.908 64.081C559.908 64.081 559.908 64.0809 559.908 64.0834H559.893C559.223 64.3106 558.396 64.4365 557.087 64.5081C557.824 64.0488 558.885 64.0834 559.893 64.0834H559.885ZM191.646 75.0129C192.744 74.9709 193.662 74.8597 194.429 75.1734C193.391 75.3561 192.639 75.1684 191.646 75.0129Z" fill="#FFDDE2"/>
<path d="M88.6955 64.8242C95.4656 65.8687 102.281 66.8836 109.164 67.8418C111.323 68.143 113.587 68.3875 115.783 68.6739C117.98 68.9604 120.176 69.2493 122.38 69.5234C124.517 69.7901 126.728 69.9951 128.88 70.2445C131.099 70.5037 133.393 70.7087 135.559 71.0001C137.463 71.2569 139.479 71.3088 141.419 71.5705C146.316 72.2323 151.657 72.4743 156.78 72.9336C159.337 73.1633 162.264 73.1262 164.558 73.4102C168.334 73.8769 172.366 73.7238 176.029 74.2399C177.933 74.5091 180.092 74.109 182.108 74.3411C184.432 74.6078 186.892 74.6671 189.299 74.8128C191.548 74.9486 194.091 74.6795 195.964 75.3487C196.204 75.4326 196.731 75.4054 197.115 75.3684C198.769 75.2128 200.402 75.3437 202.042 75.4054C206.976 75.5857 211.873 75.8722 216.83 75.9635C217.703 75.9783 218.568 76.003 219.381 76.1166C221.84 76.4599 224.323 76.7043 226.986 76.3438C227.347 76.2944 227.768 76.3364 228.159 76.3438C238.908 76.6204 249.613 77.0649 260.43 77.1044C268.779 77.1365 277.114 77.3859 285.479 77.3513C292.633 77.3217 299.786 77.4106 306.94 77.4402C315.117 77.4748 323.294 77.4575 331.463 77.3982C341.701 77.3241 351.946 77.218 362.184 77.0698C372.497 76.9216 382.795 76.6969 393.086 76.4204C407.077 76.0475 421.031 75.519 434.879 74.7535C460.267 73.3485 485.332 71.4619 510.095 69.153C526.87 67.5899 543.532 65.9107 559.825 63.8537C561.856 63.5969 563.977 62.8166 566.61 63.5006C566.783 63.5451 567.189 63.4438 567.483 63.4068C575.923 62.3104 584.084 61.0337 591.75 59.4262C591.133 59.3842 590.727 59.5126 590.253 59.6089C582.73 61.1275 574.787 62.3622 566.339 63.4191C566.896 62.9104 566.708 62.6907 565 62.9253C553.544 64.5007 541.749 65.7798 529.916 67.0096C516.594 68.3924 503.152 69.6568 489.582 70.7457C476.26 71.815 462.84 72.7583 449.413 73.6769C441.981 74.1856 434.481 74.6177 426.951 74.9215C419.647 75.2153 412.38 75.5808 405.031 75.7931C397.471 76.0104 389.919 76.2944 382.351 76.4969C374.453 76.7068 366.532 76.9216 358.618 76.9463C350.9 76.9686 343.198 77.1735 335.48 77.1365C334.224 77.1315 332.937 77.2451 331.719 77.1834C328.65 77.0278 325.633 77.3464 322.602 77.255C319.502 77.1612 316.343 77.1785 313.312 77.218C309.738 77.2649 306.105 77.2673 302.6 77.218C299.109 77.171 295.581 77.1809 292.114 77.176C282.5 77.1612 272.902 77.0056 263.296 76.9488C260.964 76.934 258.639 76.9414 256.315 76.9291C253.035 76.9142 249.763 76.7661 246.483 76.6648C241.887 76.5241 237.284 76.2648 232.695 76.2747C230.198 76.2821 227.392 75.5437 225.052 76.445C224.97 76.4747 224.496 76.4574 224.428 76.4204C223.661 76.0006 222.984 75.4771 221.727 76.3142C221.63 76.3784 221.088 76.3389 221.043 76.2055C220.915 75.8129 219.907 75.9191 219.223 75.8524C216.296 75.5684 213.22 75.6129 210.241 75.5289C205.743 75.403 201.304 74.8054 196.701 75.2277C196.152 75.277 195.813 75.1733 195.557 75.0301C194.895 74.6597 193.827 74.6177 192.676 74.6449C190.45 74.6992 188.321 74.4893 186.139 74.4103C183.582 74.3165 181.205 73.8621 178.527 74.0275C176.488 74.1535 174.585 74.1436 172.93 73.6077C172.389 73.4324 171.509 73.4571 170.546 73.583C168.974 73.788 166.958 73.7559 165.98 73.2744C165.25 72.9163 164.814 72.941 163.986 73.0867C163.242 73.2176 162.534 73.1633 161.737 73.1509C159.586 73.1163 157.675 72.7311 155.509 72.7484C155.163 72.7509 154.711 72.6743 154.478 72.5854C154.2 72.4842 155.29 72.2595 154.23 72.1804C153.598 72.1335 153.252 72.3237 152.778 72.3731C151.582 72.499 150.258 72.4743 149.619 72.0817C149.167 71.8076 149.258 71.731 148.821 71.936C148.34 72.1607 147.934 72.0669 147.415 72.0224C146.204 71.9162 145 71.7853 143.759 71.7236C141.728 71.6248 140.329 71.0939 138.125 71.0198C135.244 70.9211 132.505 70.4642 129.7 70.1778C117.431 68.9209 105.696 67.2417 94.0364 65.4934C82.595 63.7772 71.319 61.9548 60.4493 59.8657C59.8701 59.7546 59.3209 59.6904 58.6665 59.7348C60.2763 59.9003 61.54 60.2657 62.9918 60.5226C71.4619 62.0165 79.9847 63.471 88.688 64.8143L88.6955 64.8242Z" fill="#FFDDE2"/>
<path d="M108.524 14.8378C118.183 13.8945 127.924 13.0648 137.733 12.3191C150.378 11.356 163.106 10.5313 175.879 9.79292C186.109 9.20275 196.415 8.75085 206.736 8.33353C217.432 7.90139 228.167 7.57049 238.901 7.31368C246.258 7.13588 253.645 6.86672 261.069 6.93586C265.169 6.9729 269.268 6.84697 273.308 6.60744C276.084 6.44199 278.792 6.74819 281.244 6.62966C274.511 6.41236 267.441 6.42717 260.4 6.26913C257.278 6.19999 254.119 6.16789 250.974 6.16789C240.007 6.16789 229.032 6.09628 218.072 6.18517C204.058 6.30123 190.036 6.38766 176.037 6.73337C167.793 6.93586 159.548 7.19268 151.266 7.27664C146.301 7.32602 141.397 7.63716 136.447 7.7878C120.026 8.28661 103.725 9.09409 87.3791 9.77811C77.2842 10.2004 67.3247 10.9239 57.2673 11.4301C49.9632 11.7956 42.6214 12.2178 35.1593 12.003C31.8344 11.9067 28.7954 11.4499 25.6436 11.1363C24.1542 10.9881 24.3648 10.6251 24.6431 10.2572C23.8081 10.6251 23.605 11.0449 25.1095 11.1955C29.1565 11.6005 33.0455 12.1635 37.3633 12.3166C44.2011 12.5586 50.9411 12.2771 57.6209 11.9586C71.6349 11.2894 85.5888 10.472 99.6555 9.89911C114.271 9.30399 128.857 8.62738 143.518 8.16067C155.366 7.78533 167.236 7.53839 179.114 7.29392C201.793 6.82721 224.503 6.71609 247.221 6.77288C248.018 6.77288 248.951 6.67164 249.771 6.9729C248.951 6.9976 248.281 7.02723 247.612 7.03958C232.567 7.30133 217.583 7.78039 202.643 8.39032C179.7 9.32621 157.021 10.7288 134.514 12.45C125.607 13.1315 116.754 13.8797 108.028 14.786C108.028 14.8156 108.028 14.8428 108.028 14.8724C108.193 14.8625 108.359 14.8502 108.532 14.8428L108.524 14.8378Z" fill="#FFDDE2"/>
<path d="M25.6436 11.1336C28.7954 11.4472 31.8344 11.904 35.1593 12.0003C42.6214 12.2152 49.9632 11.7929 57.2673 11.4274C67.3246 10.9212 77.2917 10.1977 87.3791 9.77544C103.725 9.09142 120.033 8.28394 136.447 7.78513C141.397 7.6345 146.309 7.32336 151.266 7.27397C159.548 7.19001 167.793 6.93566 176.037 6.73071C190.036 6.38746 204.05 6.29857 218.072 6.18251C229.032 6.09114 240.007 6.16522 250.974 6.16522C254.118 6.16522 257.278 6.19732 260.4 6.26647C267.44 6.4245 274.511 6.40969 281.244 6.62699C278.792 6.74552 276.084 6.43685 273.308 6.60477C269.268 6.84677 265.169 6.9727 261.069 6.93319C253.645 6.86652 246.258 7.13568 238.901 7.31101C228.167 7.56782 217.432 7.89872 206.735 8.33086C196.415 8.74818 186.117 9.20008 175.879 9.79026C163.106 10.5261 150.371 11.3534 137.733 12.3164C127.924 13.0646 118.175 13.8919 108.524 14.8352C108.351 14.8426 108.186 14.8549 108.02 14.8648C108.02 14.892 108.02 14.9167 108.02 14.9438C113.624 14.4475 119.213 13.9215 124.825 13.4449C134.002 12.6671 143.3 12.0324 152.575 11.3855C162.858 10.6694 173.171 10.0076 183.582 9.51863C191.495 9.14575 199.409 8.76547 207.345 8.4321C212.4 8.22221 217.485 8.08886 222.562 7.93329C229.205 7.7308 235.832 7.42954 242.481 7.37027C249.883 7.3036 257.27 7.07642 264.687 7.17025C265.221 7.17766 265.763 7.10358 266.312 7.0937C269.441 7.0295 272.556 6.7875 275.64 6.76775C278.017 6.75293 280.484 6.8443 282.914 6.85911C283.365 6.86158 283.99 6.88134 283.982 6.66403C283.967 6.49118 283.455 6.41463 282.951 6.41216C281.063 6.40228 279.175 6.27634 277.325 6.2714C269.02 6.24177 260.753 5.96273 252.456 5.94051C240.383 5.91088 228.302 5.91088 216.229 5.95039C213.822 5.95779 211.362 5.82445 209.007 5.97261C204.479 6.25412 199.913 5.9899 195.362 6.18991C191.518 6.3603 187.531 6.15781 183.657 6.27387C175.375 6.52328 167.078 6.67638 158.781 6.86405C155.494 6.93813 152.199 6.98258 148.919 7.08877C143.932 7.24927 138.967 7.50856 133.972 7.62462C129.038 7.74068 124.178 8.01725 119.281 8.20492C113.76 8.41482 108.246 8.65682 102.732 8.88647C97.0603 9.12106 91.381 9.33095 85.7242 9.60258C80.609 9.84705 75.539 10.1705 70.4313 10.4397C62.7059 10.8471 55.0332 11.346 47.225 11.6127C40.2594 11.8497 33.4893 11.9929 26.7794 11.1756C25.305 10.9978 24.4851 10.778 24.628 10.252C24.3497 10.62 24.1391 10.983 25.6285 11.1311L25.6436 11.1336Z" fill="#FFDDE2"/>
<path d="M577.51 29.6675C583.204 31.201 588.869 32.737 593.743 34.5717C596.067 35.4459 598.625 36.2608 600.806 37.1769C607.629 40.0438 614.136 43.017 615.716 46.7161C616.882 49.4497 614.911 52.0302 609.337 54.2353C606.915 55.191 604.079 56.0108 601.604 56.9417C605.786 55.8725 609.841 54.6995 612.255 53.1661C616.754 50.3016 617.965 47.2988 614.151 44.18C608.991 39.9599 600.408 36.5472 590.93 33.3395C585.679 31.5615 579.819 30.0009 574.035 28.3933C575.193 28.4822 576.276 28.6181 577.344 28.7662C582.264 29.4502 587.176 30.1367 592.088 30.8232C585.198 29.7614 578.315 28.6971 571.033 27.8945C573.117 28.5168 575.343 29.0798 577.517 29.6651L577.51 29.6675Z" fill="#FFDDE2"/>
<path d="M591.667 30.6541C584.851 29.6416 578.029 28.6366 571.206 27.6291C570.687 27.5525 569.987 27.476 569.679 27.6414C569.243 27.8735 570.033 28.0168 570.484 28.1304C574.132 29.0588 577.72 30.0145 581.301 30.9677C585.145 31.99 588.838 33.0666 592.208 34.2272C598.587 36.4274 604.658 38.724 609.156 41.423C613.286 43.9022 616.912 46.3938 615.287 49.3447C614.542 50.6955 613.857 52.066 611.24 53.1846C608.554 54.3304 605.711 55.4416 602.469 56.4293C602.017 56.5652 601.483 56.701 601.611 56.9479C604.086 56.0145 606.929 55.1971 609.344 54.2415C614.918 52.0388 616.889 49.4558 615.723 46.7222C614.143 43.0207 607.637 40.0475 600.814 37.1831C598.632 36.2669 596.075 35.452 593.75 34.5779C588.876 32.7407 583.212 31.2072 577.517 29.6737C575.351 29.0885 573.117 28.5255 571.033 27.9032C578.315 28.7057 585.197 29.77 592.088 30.8319C591.952 30.7726 591.855 30.6837 591.674 30.6565L591.667 30.6541Z" fill="#FFDDE2"/>
<path d="M76.9306 18.4221C85.9423 17.1356 95.2098 16.0688 104.635 15.1477C105.711 15.0416 106.787 14.9403 107.892 14.8712C107.877 14.8391 107.915 14.8094 108.02 14.7773C107.561 14.7922 107.072 14.7848 106.636 14.8267C99.1365 15.5305 91.6969 16.3182 84.4755 17.2714C65.2259 19.8124 46.5255 22.7238 29.7884 26.8155C27.0578 27.4823 23.8758 27.986 21.8373 28.9367C32.8123 26.0624 44.5622 23.5732 56.9965 21.4372C63.4808 20.3235 70.2207 19.3778 76.9382 18.4197L76.9306 18.4221Z" fill="#FFDDE2"/>
<path d="M23.0634 28.7588C32.0977 26.4623 41.4855 24.3263 51.5428 22.5434C69.5362 19.353 88.2893 16.7453 108.028 14.9427C107.945 14.9205 107.907 14.8958 107.892 14.8711C106.787 14.9402 105.718 15.0415 104.635 15.1477C95.2098 16.0687 85.9423 17.1355 76.9306 18.422C70.2207 19.3802 63.4807 20.3235 56.989 21.4396C44.5546 23.5756 32.8048 26.0623 21.8297 28.9391C22.3788 28.9835 22.6873 28.8527 23.0558 28.7588H23.0634Z" fill="#FFDDE2"/>
<path d="M107.892 14.8751C107.937 14.8726 107.982 14.8701 108.027 14.8677C108.027 14.838 108.027 14.8109 108.027 14.7812C107.922 14.8134 107.885 14.843 107.9 14.8751H107.892Z" fill="#FFDDE2"/>
<path d="M107.892 14.8746C107.907 14.8993 107.945 14.9215 108.027 14.9462C108.027 14.919 108.027 14.8944 108.027 14.8672C107.982 14.8697 107.937 14.8721 107.892 14.8746Z" fill="#FFDDE2"/>
<path d="M99.7457 22.6159C110.142 21.2331 120.974 20.2601 131.768 19.2749C156.975 16.9784 182.649 15.4128 208.473 14.0991C217.59 13.6348 226.745 13.2323 235.922 12.9286C244.151 12.657 252.388 12.3779 260.655 12.2199C270.186 12.0371 279.717 11.931 289.248 11.8766C297.823 11.8272 306.406 11.7038 315.004 11.8519C323.421 11.9952 331.869 11.9211 340.302 11.9482C345.868 11.968 351.48 11.9927 356.986 12.1656C364.568 12.4051 372.204 12.4001 379.756 12.7755C388.61 13.215 397.569 13.3583 406.468 13.6645C415.991 13.9904 425.454 14.4423 434.947 14.83C449.224 15.4128 463.389 16.2696 477.095 17.7414C488.927 19.0106 500.466 20.5342 511.63 22.369C518.023 23.4209 524.425 24.463 530.495 25.7076C529.931 25.2927 528.668 25.1569 527.592 24.9692C522.311 24.0506 517.046 23.1296 511.72 22.2381C503.799 20.9071 495.607 19.7762 487.34 18.744C478.11 17.5883 468.542 16.7191 458.861 16.0227C448.66 15.2893 438.302 14.9164 427.989 14.4127C416.969 13.8744 405.911 13.4521 394.838 13.1335C386.24 12.8866 377.725 12.415 369.097 12.2545C366.223 12.2001 363.35 12.3038 360.469 12.1853C358.927 12.1236 357.716 11.7556 355.963 11.8692C352.947 12.0668 349.795 11.5606 346.733 11.9581C346.56 11.9803 346.297 11.9038 346.064 11.8939C343.724 11.7951 341.407 11.684 339.023 11.6396C331.29 11.5013 323.527 11.6297 315.816 11.3704C313.74 11.3013 311.784 11.5951 309.723 11.4964C303.623 11.2025 297.5 11.4544 291.391 11.4099C288.217 11.3877 285.005 11.5186 281.861 11.484C277.498 11.4346 273.18 11.605 268.825 11.5902C262.258 11.5655 255.683 11.8322 249.116 12.0001C243.489 12.1433 237.825 12.2273 232.259 12.5039C222.427 12.9928 212.505 13.2397 202.719 13.8447C193.03 14.4423 183.236 14.872 173.562 15.4967C162.722 16.1956 151.92 16.9611 141.201 17.8599C126.42 19.0971 111.864 20.5466 97.5643 22.29C96.7669 22.3863 95.616 22.4554 95.4355 22.7295C95.0744 23.2876 93.7129 23.3444 92.5243 23.5098C82.0909 24.9717 71.6424 26.4311 61.8258 28.3103C59.0125 28.8486 55.7929 29.1993 53.6115 30.0611C61.2391 28.4511 69.2127 27.0583 77.4722 25.8261C84.8516 24.7248 92.231 23.616 99.7382 22.6159H99.7457Z" fill="#FFDDE2"/>
<path d="M87.7778 24.4124C104.553 22.0295 121.989 20.3157 139.637 18.8242C152.229 17.7599 164.919 16.8364 177.707 16.0536C189.63 15.3251 201.583 14.6461 213.588 14.0806C224.029 13.5867 234.515 13.1965 245.024 12.8607C259.948 12.3841 274.91 12.1767 289.88 12.0853C301.622 12.0162 313.379 12.0754 325.129 12.0977C340.279 12.1248 355.429 12.2285 370.519 12.6755C388.82 13.2163 407.137 13.7423 425.356 14.567C436.768 15.0831 448.217 15.5424 459.477 16.3252C479.035 17.6883 497.442 20.1379 515.27 23.0666C520.4 23.9087 525.425 24.8248 530.495 25.7064C524.425 24.4593 518.023 23.4197 511.63 22.3678C500.474 20.5306 488.927 19.0094 477.095 17.7402C463.389 16.2684 449.224 15.4116 434.947 14.8288C425.454 14.4411 415.991 13.9892 406.468 13.6632C397.569 13.357 388.61 13.2138 379.756 12.7743C372.211 12.3989 364.568 12.4063 356.986 12.1643C351.48 11.9915 345.868 11.9643 340.302 11.947C331.869 11.9199 323.421 11.9939 315.004 11.8507C306.406 11.705 297.823 11.826 289.248 11.8754C279.717 11.9297 270.179 12.0384 260.655 12.2187C252.388 12.3767 244.151 12.6557 235.922 12.9274C226.745 13.2311 217.59 13.6336 208.473 14.0979C182.649 15.4116 156.968 16.9747 131.768 19.2737C120.974 20.2565 110.142 21.2319 99.7458 22.6147C92.2385 23.6148 84.8591 24.7236 77.4798 25.8249C69.2203 27.0596 61.2466 28.4498 53.619 30.0599C53.9124 30.0302 54.2359 30.0154 54.4916 29.966C65.1056 27.8029 76.3289 26.0397 87.7778 24.4124Z" fill="#FFDDE2"/>
<path d="M559.908 64.0823C561.435 64.0872 562.789 63.9563 563.849 63.5859C562.548 63.7613 560.848 63.623 559.908 64.0823Z" fill="#FFDDE2"/>
<path d="M557.087 64.5113C558.396 64.4372 559.216 64.3137 559.893 64.0865C558.885 64.0865 557.824 64.052 557.087 64.5113Z" fill="#FFDDE2"/>
<path d="M559.891 64.082H559.885L559.898 64.0841L559.891 64.082Z" fill="#FFDDE2"/>
<path d="M559.899 64.0844L559.893 64.082L559.899 64.0844Z" fill="#FFDDE2"/>
<path d="M191.646 75.0128C192.639 75.1684 193.391 75.3561 194.429 75.1734C193.662 74.8622 192.744 74.9733 191.646 75.0128Z" fill="#FFDDE2"/>
</g>
<defs>
<clipPath id="clip0_172_172">
<rect width="629" height="78" fill="white"/>
</clipPath>
</defs>
</svg>
