<svg width="303" height="78" viewBox="0 0 303 78" fill="none" xmlns="http://www.w3.org/2000/svg">
<g clip-path="url(#clip0_28_510)">
<path d="M29.1194 59.8796C34.3519 61.9662 39.7873 63.7911 45.2988 65.5073C50.9154 67.2556 56.5683 68.9348 62.4784 70.1917C63.8264 70.4781 65.1454 70.935 66.5369 71.0337C67.595 71.1078 68.2726 71.6387 69.251 71.7375C69.8452 71.7992 70.425 71.9301 71.0121 72.0363C71.2621 72.0807 71.4578 72.1746 71.6897 71.9499C71.8998 71.7474 71.8564 71.8215 72.0738 72.0956C72.3818 72.4882 73.0195 72.5104 73.5957 72.3869C73.8276 72.3376 73.9943 72.1474 74.2951 72.1943C74.806 72.2733 74.2806 72.4981 74.4146 72.5993C74.5306 72.6857 74.7444 72.7648 74.9111 72.7623C75.9547 72.745 76.8751 73.1302 77.9114 73.1648C78.2955 73.1771 78.6362 73.2315 78.9949 73.1006C79.3935 72.9549 79.6037 72.9302 79.9552 73.2883C80.4262 73.7698 81.3974 73.7994 82.1547 73.5969C82.6185 73.4735 83.0425 73.4463 83.3034 73.6216C84.1006 74.16 85.0174 74.1674 85.9994 74.0414C87.2894 73.876 88.4344 74.3328 89.6665 74.4242C90.7137 74.5032 91.7428 74.7131 92.8154 74.6588C93.3698 74.6316 93.8844 74.6736 94.2032 75.044C94.3264 75.1897 94.4895 75.2934 94.754 75.2415C96.9753 74.8193 99.1132 75.4169 101.277 75.5428C102.711 75.6268 104.194 75.5848 105.603 75.8663C105.933 75.933 106.418 75.8243 106.48 76.2194C106.502 76.3503 106.763 76.3923 106.81 76.3281C107.415 75.4934 107.741 76.0169 108.111 76.4342C108.143 76.4737 108.375 76.491 108.411 76.4589C109.538 75.5576 110.89 76.2935 112.093 76.2885C114.307 76.2762 116.521 76.5379 118.735 76.6787C120.311 76.7775 121.891 76.9256 123.471 76.9429C124.591 76.9528 125.711 76.9479 126.834 76.9627C131.461 77.0219 136.085 77.175 140.716 77.1899C142.387 77.1948 144.086 77.1825 145.767 77.2318C147.456 77.2788 149.206 77.2788 150.927 77.2318C152.388 77.1923 153.91 77.175 155.403 77.2689C156.863 77.3627 158.316 77.0442 159.794 77.1973C160.381 77.259 161.001 77.1454 161.606 77.1504C165.324 77.1874 169.035 76.9824 172.752 76.9602C176.565 76.9355 180.38 76.7207 184.185 76.5108C187.83 76.3083 191.472 76.0243 195.11 75.807C198.65 75.5947 202.155 75.2292 205.669 74.9353C209.297 74.6316 212.909 74.1995 216.49 73.6908C222.958 72.7722 229.422 71.8289 235.84 70.7596C242.377 69.6706 248.852 68.4063 255.27 67.0235C260.97 65.7937 266.648 64.5146 272.17 62.9391C272.993 62.7045 273.083 62.9218 272.815 63.433C276.888 62.3761 280.711 61.1414 284.335 59.6228C284.563 59.5265 284.759 59.3981 285.056 59.44C286.828 58.7758 288.375 57.914 289.81 56.9509C289.748 56.704 290.006 56.5682 290.223 56.4323C291.788 55.4446 293.158 54.3334 294.448 53.1876C295.709 52.069 296.039 50.7009 296.398 49.3477C297.18 46.3968 295.437 43.9052 293.444 41.426C291.278 38.727 288.353 36.4304 285.28 34.2302C283.657 33.0672 281.878 31.993 280.026 30.9707C278.301 30.0175 276.573 29.0618 274.815 28.1334C274.602 28.0198 274.221 27.8765 274.428 27.6444C274.576 27.479 274.913 27.5555 275.163 27.6321C278.45 28.6371 281.737 29.6446 285.02 30.6571C285.107 30.6842 285.154 30.7731 285.219 30.8324C285.346 30.8867 285.469 30.9509 285.603 30.9929C289.93 32.3338 294.162 33.7932 298.315 35.376C299.442 35.8057 300.416 36.3934 301.637 36.7218C302.152 36.8601 302.536 36.8181 302.851 36.5514C303.214 36.2452 302.837 36.0329 302.576 35.8131C301.895 35.2451 301.058 34.8056 300.163 34.4056C297.648 33.282 294.948 32.3757 292.325 31.3855C283.472 28.0445 274.21 25.2738 265.097 22.2933C258.687 20.1968 252.026 18.4979 245.598 16.4285C239.891 14.5938 234.079 12.9368 228.085 11.5787C216.953 9.05994 205.528 7.3536 194.041 5.82259C180.551 4.02489 166.926 2.84206 153.257 1.86666C145.028 1.27895 136.799 0.66161 128.537 0.343061C118.021 -0.0643851 107.487 -0.0495689 96.9608 0.106001C80.4987 0.350469 64.1054 1.22216 47.7883 2.76304C38.3596 3.65449 29.0614 4.9188 19.9878 6.90912C16.8969 7.58819 13.8965 8.37345 11.8745 10.2576C11.8057 10.7836 12.2007 11.0009 12.9109 11.1811C16.1432 11.9985 19.4081 11.8553 22.7599 11.6182C26.5248 11.3515 30.2173 10.8527 33.9388 10.4453C36.3956 10.1761 38.8415 9.85261 41.3056 9.60814C44.0306 9.33651 46.7664 9.12661 49.4986 8.89202C52.1547 8.66237 54.8108 8.42037 57.4706 8.21047C59.8296 8.02527 62.1704 7.74623 64.5475 7.63017C66.9536 7.51411 69.3452 7.25483 71.7477 7.09432C73.3276 6.98814 74.9147 6.94369 76.4982 6.86961C80.4914 6.68193 84.4919 6.52883 88.4815 6.27943C90.3513 6.16337 92.2682 6.36339 94.1199 6.19547C96.3122 5.99545 98.5117 6.25967 100.693 5.97816C101.827 5.83247 103.012 5.96335 104.172 5.95594C109.988 5.91643 115.807 5.91396 121.623 5.94606C125.62 5.96582 129.602 6.24733 133.603 6.27696C134.494 6.28437 135.404 6.4103 136.313 6.41771C136.556 6.42018 136.806 6.49673 136.81 6.66959C136.817 6.88689 136.513 6.86714 136.295 6.86467C135.125 6.84985 133.936 6.75849 132.791 6.7733C131.305 6.79306 129.809 7.03752 128.298 7.09926C128.037 7.10914 127.776 7.18322 127.515 7.17581C123.946 7.08197 120.384 7.30915 116.818 7.37583C113.615 7.43509 110.419 7.73636 107.223 7.93884C104.777 8.09441 102.327 8.22776 99.8923 8.43766C96.0694 8.76855 92.261 9.15131 88.4453 9.52418C83.4302 10.0131 78.4622 10.6749 73.5087 11.391C69.0408 12.038 64.562 12.6726 60.1412 13.4505C57.438 13.9271 54.7456 14.453 52.046 14.9494C42.5376 16.752 33.5039 19.3572 24.8362 22.5501C19.9915 24.333 15.4692 26.469 11.1172 28.7655C10.9397 28.8594 10.7947 28.9902 10.5266 28.9458C6.89569 30.9114 3.81561 33.2203 1.482 35.9489C0.112269 37.5491 -0.25734 39.3443 0.181118 41.1815C0.58334 42.8557 1.8806 44.2756 3.21047 45.656C5.62742 48.1624 8.68938 50.2811 12.0376 52.2072C17.0636 55.1038 22.5026 57.5954 28.2678 59.7512C28.5831 59.7067 28.844 59.7709 29.1266 59.882L29.1194 59.8796ZM21.4771 50.938C18.4768 49.1279 15.7446 47.1623 13.5921 44.8436C12.8167 44.0065 12.1282 43.1249 11.7622 42.1767C10.9723 40.1296 11.7368 38.2528 13.6392 36.6428C15.9729 34.6648 19.0058 33.2153 22.0569 31.7979C23.3107 31.2151 24.5681 30.6398 25.8255 30.0595C26.88 29.2001 28.4309 28.847 29.7825 28.3087C34.5113 26.4295 39.5445 24.9676 44.5705 23.5082C45.143 23.3428 45.7989 23.286 45.9728 22.7279C46.0598 22.4538 46.6142 22.3871 46.9983 22.2884C53.8832 20.5474 60.8985 19.0955 68.0189 17.8583C73.1826 16.9595 78.3861 16.1939 83.6078 15.4951C88.2677 14.8728 92.9857 14.4407 97.6529 13.8431C102.367 13.2381 107.147 12.9912 111.883 12.5022C114.564 12.2257 117.293 12.1417 120.003 11.9985C123.167 11.8306 126.338 11.5639 129.497 11.5886C131.595 11.6034 133.675 11.433 135.777 11.4824C137.292 11.517 138.839 11.3861 140.368 11.4083C143.311 11.4528 146.264 11.2009 149.199 11.4947C150.188 11.5935 151.134 11.2997 152.134 11.3688C155.848 11.6281 159.588 11.4997 163.313 11.638C164.462 11.6799 165.578 11.7935 166.705 11.8923C166.817 11.9022 166.944 11.9787 167.027 11.9565C168.502 11.5589 170.017 12.0627 171.473 11.8676C172.321 11.7516 172.901 12.1195 173.644 12.1837C175.032 12.2998 176.416 12.1985 177.8 12.2528C181.956 12.4133 186.058 12.885 190.2 13.1319C195.534 13.448 200.861 13.8727 206.17 14.4111C211.138 14.9148 216.127 15.2877 221.041 16.0211C225.708 16.7175 230.314 17.5891 234.76 18.7423C238.742 19.777 242.688 20.9055 246.504 22.2365C249.066 23.1304 251.606 24.0515 254.15 24.9676C254.668 25.1553 255.277 25.2911 255.549 25.706C258.904 27.1728 262.241 28.6519 265.325 30.383C271.837 34.0401 277.526 38.1639 281.454 43.3175C282.871 45.1769 283.69 47.0784 283.092 49.2144C282.668 50.7232 281.407 51.7875 279.736 52.6888C276.004 54.7013 271.75 56.0619 267.372 57.2843C255.918 60.4895 244.098 62.9046 232.133 65.0282C224.447 66.3913 216.693 67.5544 208.891 68.5545C200.263 69.6608 191.548 70.33 182.797 70.8238C168.73 71.6165 154.642 71.8659 140.538 71.8881C132.251 71.9029 123.964 71.7424 115.695 71.4066C109.332 71.1498 102.994 70.5942 96.6528 70.1349C89.5469 69.6212 82.5026 68.8236 75.509 67.8408C67.4573 66.7074 59.6121 65.0974 51.9735 63.0033C46.3243 61.455 40.7874 59.7438 35.4824 57.7139C30.4673 55.7977 25.7893 53.5407 21.4771 50.938Z" fill="#FFDDE2"/>
<path d="M197.538 76.5162C207.554 75.7976 217.432 74.516 227.255 73.0196C237.046 71.5281 246.725 69.7501 256.277 67.661C264.021 65.967 271.71 64.1693 279.091 61.821C281.182 61.1567 283.269 60.4727 285.049 59.4355C281.356 61.0406 277.424 62.3198 273.359 63.4162C273.217 63.4532 273.025 63.5545 272.938 63.51C271.667 62.826 270.645 63.6063 269.67 63.8631C261.821 65.9201 253.795 67.5968 245.714 69.1624C233.785 71.4713 221.711 73.3603 209.482 74.7629C202.814 75.5284 196.092 76.0569 189.349 76.4298C184.395 76.7039 179.434 76.9286 174.463 77.0792C169.531 77.2274 164.596 77.3335 159.664 77.4076C155.729 77.4669 151.793 77.4842 147.851 77.4496C144.409 77.42 140.962 77.3286 137.513 77.3607C133.487 77.3953 129.468 77.1434 125.446 77.1138C120.235 77.0718 115.079 76.6298 109.901 76.3532C109.712 76.3433 109.509 76.3013 109.335 76.3532C108.053 76.7137 106.857 76.4693 105.672 76.126C105.281 76.0124 104.864 75.9877 104.444 75.9729C102.052 75.8816 99.693 75.5951 97.3196 75.4148C96.5296 75.3531 95.7433 75.2222 94.9461 75.3778C94.7613 75.4148 94.5076 75.442 94.3917 75.358C93.4894 74.6889 92.2646 74.958 91.1811 74.8222C90.0216 74.6765 88.8403 74.6172 87.717 74.3505C86.7495 74.1209 85.7095 74.5185 84.7891 74.2493C83.0244 73.7332 81.0821 73.8888 79.2631 73.4196C78.1579 73.1356 76.7483 73.1702 75.5162 72.943C73.0485 72.4837 70.4758 72.2417 68.1168 71.5799C67.1819 71.3182 66.2108 71.2638 65.294 71.0095C64.2504 70.7181 63.1488 70.5107 62.0762 70.2539C61.0362 70.0045 59.9745 69.7995 58.9454 69.5328C57.8837 69.2562 56.8256 68.9698 55.7675 68.6833C54.713 68.3969 53.6223 68.1524 52.5787 67.8512C49.2631 66.893 45.9801 65.8781 42.7188 64.8336C38.5263 63.4927 34.4207 62.0358 30.3405 60.5418C29.6412 60.285 29.0288 59.9195 28.257 59.7541C29.5288 60.4628 31.029 60.9122 32.4604 61.4333C44.1103 65.6831 56.1335 69.3254 68.8343 71.8836C75.364 73.1973 82.0098 74.1653 88.7026 74.9728C94.08 75.6198 99.5155 76.0445 104.944 76.4816C116.046 77.3805 127.189 77.8521 138.364 77.941C148.655 78.025 158.95 78.0645 169.241 77.8151C178.695 77.5879 188.128 77.1953 197.534 76.5211L197.538 76.5162ZM269.706 64.0854C269.706 64.0854 269.706 64.0854 269.71 64.0829H269.717C270.17 63.6236 270.989 63.7619 271.616 63.5866C271.108 63.957 270.453 64.0878 269.717 64.0829C269.717 64.0829 269.717 64.0829 269.717 64.0854H269.71C269.387 64.3126 268.989 64.4385 268.358 64.5101C268.713 64.0508 269.224 64.0854 269.71 64.0854H269.706ZM92.319 75.0148C92.848 74.9728 93.2901 74.8617 93.6597 75.1753C93.1596 75.358 92.7973 75.1704 92.319 75.0148Z" fill="#FFDDE2"/>
<path d="M42.7261 64.8261C45.9874 65.8707 49.2704 66.8856 52.586 67.8437C53.626 68.145 54.7167 68.3894 55.7748 68.6759C56.8329 68.9623 57.891 69.2513 58.9527 69.5254C59.9818 69.792 61.0471 69.997 62.0835 70.2464C63.1525 70.5057 64.2577 70.7107 65.3013 71.002C66.2181 71.2589 67.1892 71.3107 68.1241 71.5725C70.4831 72.2343 73.0558 72.4763 75.5235 72.9356C76.7555 73.1652 78.1651 73.1282 79.2703 73.4122C81.0894 73.8789 83.0317 73.7258 84.7964 74.2419C85.7131 74.511 86.7531 74.111 87.7243 74.3431C88.844 74.6098 90.0289 74.6691 91.1884 74.8148C92.2719 74.9506 93.4967 74.6814 94.399 75.3506C94.5149 75.4346 94.7686 75.4074 94.9534 75.3704C95.7506 75.2148 96.5369 75.3457 97.3269 75.4074C99.7039 75.5877 102.063 75.8741 104.451 75.9655C104.871 75.9803 105.288 76.005 105.679 76.1186C106.864 76.4618 108.06 76.7063 109.343 76.3458C109.517 76.2964 109.72 76.3384 109.908 76.3458C115.086 76.6223 120.243 77.0668 125.453 77.1063C129.476 77.1384 133.491 77.3878 137.52 77.3533C140.966 77.3236 144.412 77.4125 147.858 77.4422C151.797 77.4767 155.736 77.4594 159.671 77.4002C164.603 77.3261 169.538 77.2199 174.47 77.0718C179.438 76.9236 184.399 76.6989 189.356 76.4223C196.096 76.0494 202.818 75.521 209.489 74.7555C221.719 73.3504 233.792 71.4638 245.721 69.155C253.802 67.5918 261.828 65.9127 269.677 63.8557C270.656 63.5989 271.677 62.8186 272.946 63.5026C273.029 63.547 273.225 63.4458 273.366 63.4087C277.432 62.3123 281.363 61.0357 285.056 59.4281C284.759 59.3861 284.563 59.5145 284.335 59.6108C280.711 61.1295 276.885 62.3642 272.815 63.4211C273.083 62.9124 272.993 62.6926 272.17 62.9272C266.651 64.5027 260.97 65.7818 255.27 67.0115C248.852 68.3944 242.377 69.6587 235.84 70.7477C229.422 71.8169 222.958 72.7602 216.49 73.6788C212.91 74.1875 209.297 74.6197 205.67 74.9234C202.151 75.2173 198.651 75.5827 195.11 75.7951C191.469 76.0124 187.83 76.2964 184.185 76.4989C180.38 76.7088 176.565 76.9236 172.753 76.9483C169.035 76.9705 165.324 77.1755 161.606 77.1384C161.001 77.1335 160.382 77.2471 159.794 77.1853C158.316 77.0298 156.863 77.3483 155.403 77.257C153.91 77.1631 152.388 77.1804 150.927 77.2199C149.206 77.2668 147.456 77.2693 145.767 77.2199C144.086 77.173 142.387 77.1829 140.716 77.1779C136.085 77.1631 131.461 77.0076 126.834 76.9508C125.711 76.9359 124.591 76.9433 123.471 76.931C121.891 76.9162 120.315 76.768 118.735 76.6668C116.521 76.526 114.304 76.2667 112.093 76.2766C110.89 76.284 109.538 75.5457 108.412 76.447C108.372 76.4766 108.143 76.4594 108.111 76.4223C107.741 76.0025 107.415 75.479 106.81 76.3161C106.763 76.3803 106.502 76.3408 106.48 76.2075C106.419 75.8148 105.933 75.921 105.603 75.8544C104.194 75.5704 102.712 75.6148 101.277 75.5309C99.1097 75.4049 96.9717 74.8073 94.7541 75.2296C94.4896 75.279 94.3265 75.1753 94.2033 75.0321C93.8844 74.6617 93.3699 74.6197 92.8155 74.6468C91.7429 74.7012 90.7174 74.4913 89.6665 74.4122C88.4345 74.3184 87.2894 73.864 85.9994 74.0295C85.0174 74.1554 84.1006 74.1456 83.3034 73.6097C83.0425 73.4344 82.6186 73.4591 82.1548 73.585C81.3974 73.79 80.4263 73.7579 79.9552 73.2763C79.6037 72.9183 79.3936 72.943 78.995 73.0887C78.6362 73.2195 78.2956 73.1652 77.9115 73.1529C76.8751 73.1183 75.9547 72.7331 74.9111 72.7504C74.7444 72.7528 74.527 72.6763 74.4147 72.5874C74.2806 72.4861 74.806 72.2614 74.2951 72.1824C73.9907 72.1355 73.824 72.3256 73.5958 72.375C73.0196 72.501 72.3818 72.4763 72.0738 72.0836C71.8564 71.8095 71.8999 71.733 71.6897 71.9379C71.4578 72.1627 71.2621 72.0688 71.0121 72.0244C70.4287 71.9182 69.8489 71.7873 69.251 71.7256C68.2727 71.6268 67.5987 71.0959 66.5369 71.0218C65.1491 70.923 63.8301 70.4662 62.4785 70.1797C56.5684 68.9228 50.9155 67.2437 45.2989 65.4954C39.7874 63.7791 34.3556 61.9567 29.1194 59.8677C28.8404 59.7565 28.5759 59.6923 28.2606 59.7368C29.0361 59.9022 29.6448 60.2677 30.3442 60.5245C34.4244 62.0185 38.53 63.4729 42.7225 64.8163L42.7261 64.8261Z" fill="#FFDDE2"/>
<path d="M52.278 14.8359C56.9307 13.8926 61.6233 13.0629 66.3485 12.3171C72.4398 11.3541 78.5709 10.5293 84.7239 9.79097C89.652 9.20079 94.6163 8.7489 99.588 8.33157C104.741 7.89943 109.912 7.56854 115.083 7.31172C118.626 7.13393 122.185 6.86477 125.761 6.93391C127.736 6.97095 129.711 6.84501 131.657 6.60548C132.994 6.44004 134.299 6.74624 135.48 6.62771C132.237 6.4104 128.831 6.42522 125.439 6.26718C123.935 6.19804 122.413 6.16594 120.898 6.16594C115.615 6.16594 110.328 6.09432 105.049 6.18322C98.2979 6.29928 91.5435 6.38571 84.8 6.73142C80.8285 6.93391 76.857 7.19072 72.8674 7.27468C70.4758 7.32407 68.1132 7.63521 65.7288 7.78584C57.8185 8.28466 49.9661 9.09214 42.092 9.77615C37.2291 10.1984 32.4314 10.9219 27.5866 11.4282C24.0681 11.7936 20.5314 12.2159 16.9368 12.0011C15.3351 11.9048 13.8712 11.4479 12.3529 11.1343C11.6354 10.9861 11.7369 10.6231 11.8709 10.2552C11.4687 10.6231 11.3709 11.0429 12.0956 11.1936C14.0451 11.5986 15.9185 12.1616 17.9985 12.3147C21.2924 12.5567 24.5391 12.2752 27.7569 11.9566C34.5077 11.2874 41.2295 10.47 48.0057 9.89715C55.0464 9.30204 62.0726 8.62543 69.135 8.15872C74.8422 7.78337 80.5603 7.53644 86.282 7.29197C97.2072 6.82526 108.147 6.71414 119.09 6.77093C119.474 6.77093 119.924 6.66969 120.319 6.97095C119.924 6.99564 119.601 7.02528 119.279 7.03762C112.031 7.29938 104.813 7.77843 97.6167 8.38837C86.5647 9.32426 75.6394 10.7269 64.7976 12.448C60.5072 13.1296 56.2422 13.8778 52.0388 14.784C52.0388 14.8137 52.0388 14.8408 52.0388 14.8705C52.1185 14.8606 52.1982 14.8482 52.2816 14.8408L52.278 14.8359Z" fill="#FFDDE2"/>
<path d="M12.3529 11.1316C13.8712 11.4453 15.3351 11.9021 16.9367 11.9984C20.5314 12.2132 24.068 11.791 27.5866 11.4255C32.4314 10.9193 37.2327 10.1957 42.0919 9.77349C49.9661 9.08947 57.8221 8.28199 65.7288 7.78317C68.1132 7.63254 70.4794 7.3214 72.8673 7.27201C76.8569 7.18806 80.8284 6.93371 84.7999 6.72875C91.5435 6.38551 98.2943 6.29661 105.049 6.18055C110.328 6.08919 115.615 6.16327 120.898 6.16327C122.413 6.16327 123.935 6.19537 125.439 6.26451C128.831 6.42255 132.237 6.40774 135.48 6.62504C134.299 6.74357 132.994 6.4349 131.657 6.60282C129.711 6.84481 127.736 6.97075 125.761 6.93124C122.185 6.86457 118.626 7.13373 115.083 7.30906C109.912 7.56587 104.741 7.89677 99.5879 8.32891C94.6163 8.74623 89.6556 9.19812 84.7238 9.7883C78.5709 10.5242 72.4361 11.3514 66.3484 12.3145C61.6232 13.0627 56.927 13.8899 52.2779 14.8332C52.1946 14.8406 52.1149 14.853 52.0351 14.8629C52.0351 14.89 52.0351 14.9147 52.0351 14.9419C54.7347 14.4455 57.4271 13.9196 60.1303 13.443C64.5511 12.6651 69.0299 12.0305 73.4979 11.3835C78.4513 10.6674 83.4193 10.0056 88.4344 9.51667C92.2465 9.1438 96.0585 8.76351 99.8814 8.43015C102.317 8.22025 104.766 8.08691 107.212 7.93134C110.412 7.72885 113.604 7.42759 116.807 7.36832C120.373 7.30165 123.931 7.07447 127.504 7.1683C127.762 7.17571 128.022 7.10163 128.287 7.09175C129.794 7.02755 131.295 6.78555 132.78 6.76579C133.925 6.75098 135.114 6.84234 136.284 6.85716C136.502 6.85963 136.803 6.87938 136.799 6.66208C136.792 6.48922 136.545 6.41267 136.302 6.4102C135.393 6.40033 134.483 6.27439 133.592 6.26945C129.592 6.23982 125.609 5.96078 121.612 5.93855C115.796 5.90892 109.977 5.90892 104.161 5.94843C103.001 5.95584 101.816 5.82249 100.682 5.97066C98.5008 6.25216 96.3013 5.98794 94.109 6.18796C92.2573 6.35835 90.3368 6.15586 88.4707 6.27192C84.481 6.52133 80.4842 6.67443 76.4873 6.8621C74.9038 6.93618 73.3167 6.98063 71.7368 7.08681C69.3343 7.24732 66.9427 7.50661 64.5366 7.62267C62.1595 7.73873 59.8187 8.0153 57.4597 8.20297C54.8 8.41286 52.1439 8.65486 49.4877 8.88451C46.7555 9.1191 44.0197 9.329 41.2947 9.60063C38.8307 9.8451 36.3883 10.1686 33.9279 10.4377C30.2064 10.8452 26.5104 11.344 22.749 11.6107C19.3936 11.8478 16.1323 11.991 12.9 11.1736C12.1898 10.9958 11.7948 10.7761 11.8637 10.2501C11.7296 10.618 11.6281 10.981 12.3456 11.1292L12.3529 11.1316Z" fill="#FFDDE2"/>
<path d="M278.196 29.6695C280.939 31.203 283.668 32.7389 286.016 34.5737C287.136 35.4478 288.368 36.2627 289.419 37.1788C292.705 40.0458 295.84 43.0189 296.601 46.718C297.162 49.4516 296.213 52.0321 293.528 54.2373C292.361 55.1929 290.995 56.0127 289.803 56.9437C291.818 55.8745 293.771 54.7015 294.934 53.168C297.101 50.3036 297.684 47.3008 295.847 44.182C293.361 39.9618 289.227 36.5492 284.661 33.3414C282.132 31.5635 279.309 30.0029 276.522 28.3953C277.08 28.4842 277.602 28.62 278.117 28.7682C280.486 29.4522 282.853 30.1387 285.219 30.8252C281.9 29.7633 278.584 28.699 275.076 27.8965C276.08 28.5188 277.153 29.0818 278.2 29.667L278.196 29.6695Z" fill="#FFDDE2"/>
<path d="M285.016 30.6521C281.733 29.6397 278.446 28.6346 275.16 27.6271C274.91 27.5506 274.573 27.474 274.424 27.6395C274.214 27.8716 274.594 28.0148 274.812 28.1284C276.569 29.0569 278.298 30.0125 280.023 30.9657C281.874 31.988 283.653 33.0647 285.277 34.2253C288.35 36.4255 291.274 38.722 293.441 41.421C295.43 43.9003 297.177 46.3919 296.394 49.3428C296.035 50.6935 295.706 52.064 294.445 53.1826C293.151 54.3284 291.781 55.4396 290.219 56.4274C290.002 56.5632 289.745 56.699 289.806 56.946C290.999 56.0125 292.368 55.1952 293.531 54.2395C296.217 52.0368 297.166 49.4539 296.604 46.7203C295.843 43.0187 292.709 40.0456 289.422 37.1811C288.371 36.265 287.139 35.4501 286.02 34.5759C283.672 32.7387 280.943 31.2052 278.2 29.6718C277.156 29.0865 276.08 28.5235 275.076 27.9012C278.584 28.7038 281.9 29.7681 285.219 30.8299C285.154 30.7706 285.107 30.6817 285.02 30.6546L285.016 30.6521Z" fill="#FFDDE2"/>
<path d="M37.0588 18.4241C41.3999 17.1375 45.8642 16.0708 50.4046 15.1497C50.9228 15.0435 51.441 14.9423 51.9736 14.8731C51.9664 14.841 51.9845 14.8114 52.0352 14.7793C51.8142 14.7941 51.5787 14.7867 51.3685 14.8287C47.7557 15.5325 44.172 16.3202 40.6933 17.2734C31.4205 19.8143 22.4121 22.7257 14.3496 26.8175C13.0342 27.4842 11.5014 27.988 10.5194 28.9387C15.8063 26.0643 21.4664 23.5752 27.4562 21.4392C30.5798 20.3255 33.8265 19.3797 37.0624 18.4216L37.0588 18.4241Z" fill="#FFDDE2"/>
<path d="M11.11 28.7608C15.462 26.4643 19.9843 24.3283 24.8291 22.5454C33.4968 19.355 42.5304 16.7473 52.0388 14.9447C51.999 14.9224 51.9808 14.8977 51.9736 14.873C51.4409 14.9422 50.9264 15.0434 50.4046 15.1496C45.8642 16.0707 41.3999 17.1375 37.0588 18.424C33.8265 19.3821 30.5797 20.3254 27.4526 21.4416C21.4627 23.5776 15.8026 26.0642 10.5157 28.941C10.7803 28.9855 10.9288 28.8546 11.1064 28.7608H11.11Z" fill="#FFDDE2"/>
<path d="M51.9736 14.8751C51.9952 14.8726 52.0168 14.8701 52.0384 14.8677C52.0384 14.838 52.0384 14.8109 52.0384 14.7812C51.988 14.8134 51.97 14.843 51.9772 14.8751H51.9736Z" fill="#FFDDE2"/>
<path d="M51.9736 14.8756C51.9808 14.9003 51.9988 14.9225 52.0384 14.9472C52.0384 14.92 52.0384 14.8953 52.0384 14.8682C52.0168 14.8706 51.9952 14.8731 51.9736 14.8756Z" fill="#FFDDE2"/>
<path d="M48.0492 22.615C53.0571 21.2321 58.2751 20.2592 63.475 19.2739C75.6177 16.9774 87.9852 15.4118 100.425 14.0981C104.817 13.6339 109.227 13.2313 113.648 12.9276C117.612 12.656 121.58 12.3769 125.562 12.2189C130.153 12.0362 134.744 11.93 139.336 11.8757C143.466 11.8263 147.601 11.7028 151.743 11.851C155.798 11.9942 159.867 11.9201 163.929 11.9473C166.611 11.967 169.314 11.9917 171.966 12.1646C175.619 12.4041 179.297 12.3992 182.935 12.7745C187.2 13.2141 191.516 13.3573 195.802 13.6635C200.39 13.9894 204.948 14.4413 209.521 14.829C216.399 15.4118 223.222 16.2687 229.825 17.7404C235.525 19.0097 241.083 20.5333 246.461 22.368C249.541 23.42 252.624 24.462 255.549 25.7066C255.277 25.2917 254.668 25.1559 254.15 24.9683C251.606 24.0497 249.07 23.1286 246.504 22.2371C242.688 20.9061 238.742 19.7752 234.76 18.743C230.314 17.5873 225.705 16.7181 221.041 16.0217C216.127 15.2883 211.138 14.9155 206.17 14.4117C200.861 13.8734 195.534 13.4511 190.2 13.1326C186.059 12.8856 181.957 12.414 177.8 12.2535C176.416 12.1991 175.032 12.3029 173.644 12.1843C172.901 12.1226 172.318 11.7547 171.473 11.8683C170.02 12.0658 168.502 11.5596 167.027 11.9571C166.944 11.9794 166.817 11.9028 166.705 11.8929C165.578 11.7942 164.462 11.683 163.313 11.6386C159.588 11.5003 155.848 11.6287 152.134 11.3694C151.134 11.3003 150.192 11.5942 149.199 11.4954C146.26 11.2015 143.311 11.4534 140.368 11.4089C138.839 11.3867 137.292 11.5176 135.777 11.483C133.675 11.4336 131.595 11.604 129.497 11.5892C126.334 11.5645 123.167 11.8312 120.004 11.9991C117.293 12.1424 114.564 12.2263 111.883 12.5029C107.147 12.9918 102.367 13.2388 97.653 13.8437C92.9858 14.4413 88.2678 14.871 83.6078 15.4958C78.3862 16.1946 73.1827 16.9601 68.019 17.8589C60.8986 19.0961 53.8869 20.5456 46.9984 22.289C46.6143 22.3853 46.0599 22.4544 45.9729 22.7285C45.799 23.2866 45.1431 23.3434 44.5706 23.5089C39.5446 24.9707 34.5114 26.4301 29.7826 28.3093C28.4273 28.8476 26.8764 29.1983 25.8256 30.0601C29.4999 28.4501 33.341 27.0573 37.3197 25.8251C40.8745 24.7238 44.4292 23.615 48.0456 22.615H48.0492Z" fill="#FFDDE2"/>
<path d="M42.2841 24.4124C50.3648 22.0295 58.7643 20.3157 67.2653 18.8242C73.3313 17.7599 79.4443 16.8364 85.6045 16.0536C91.3479 15.3251 97.1059 14.6461 102.889 14.0806C107.919 13.5867 112.97 13.1965 118.032 12.8607C125.222 12.3841 132.429 12.1767 139.64 12.0853C145.296 12.0162 150.96 12.0754 156.62 12.0977C163.918 12.1248 171.216 12.2285 178.485 12.6755C187.301 13.2163 196.125 13.7423 204.901 14.567C210.398 15.0831 215.914 15.5424 221.338 16.3252C230.76 17.6883 239.627 20.1379 248.215 23.0666C250.686 23.9087 253.106 24.8248 255.549 25.7064C252.624 24.4593 249.541 23.4197 246.461 22.3678C241.087 20.5306 235.525 19.0094 229.825 17.7402C223.222 16.2684 216.399 15.4116 209.521 14.8288C204.948 14.4411 200.39 13.9892 195.802 13.6632C191.516 13.357 187.2 13.2138 182.935 12.7743C179.3 12.3989 175.619 12.4063 171.966 12.1643C169.314 11.9915 166.611 11.9643 163.929 11.947C159.867 11.9199 155.798 11.9939 151.743 11.8507C147.601 11.705 143.466 11.826 139.336 11.8754C134.744 11.9297 130.15 12.0384 125.562 12.2187C121.58 12.3767 117.612 12.6557 113.648 12.9274C109.227 13.2311 104.817 13.6336 100.425 14.0979C87.9852 15.4116 75.6142 16.9747 63.475 19.2737C58.2751 20.2565 53.0571 21.2319 48.0493 22.6147C44.4329 23.6148 40.8781 24.7236 37.3234 25.8249C33.3446 27.0596 29.5036 28.4498 25.8292 30.0599C25.9705 30.0302 26.1264 30.0154 26.2496 29.966C31.3625 27.8029 36.7689 26.0397 42.2841 24.4124Z" fill="#FFDDE2"/>
<path d="M269.717 64.0823C270.453 64.0872 271.105 63.9563 271.616 63.5859C270.989 63.7613 270.17 63.623 269.717 64.0823Z" fill="#FFDDE2"/>
<path d="M268.358 64.5103C268.989 64.4362 269.384 64.3127 269.71 64.0856C269.224 64.0856 268.713 64.051 268.358 64.5103Z" fill="#FFDDE2"/>
<path d="M269.709 64.083H269.706L269.712 64.0851L269.709 64.083Z" fill="#FFDDE2"/>
<path d="M269.713 64.0854L269.71 64.083L269.713 64.0854Z" fill="#FFDDE2"/>
<path d="M92.319 75.0119C92.7973 75.1674 93.1596 75.3551 93.6597 75.1724C93.2901 74.8612 92.848 74.9724 92.319 75.0119Z" fill="#FFDDE2"/>
</g>
<defs>
<clipPath id="clip0_28_510">
<rect width="303" height="78" fill="white"/>
</clipPath>
</defs>
</svg>
