<?xml version="1.0" encoding="UTF-8"?><svg id="Calque_2" xmlns="http://www.w3.org/2000/svg" viewBox="0 0 500 500"><defs><style>.cls-1{fill:#335ede;}.cls-1,.cls-2{stroke-width:0px;}.cls-2{fill:#ffdde2;}</style></defs><g id="Calque_1-2"><rect class="cls-1" width="500" height="500"/><path class="cls-2" d="m68.83,116.37c-17.98,39.34-29.98,81.12-35.68,124-2.84,21.35-4.09,42.9-3.68,64.43.32,16.69,1.87,33.85,7.99,49.53,6.27,16.04,17.46,29.69,34.25,35.23,18.45,6.08,39.42,1.83,57.02-5.13,33.24-13.16,60.42-39.35,77.12-70.74,19.4-36.48,24.9-79.13,21.02-119.89-.5-5.24-1.16-10.46-1.93-15.67-.37-2.51-1.98-10.14-4.2-9.53-2.69.74,1.04,6.38,1.41,8.89,5.72,38.7-6.13,82.93-21.65,119.19-13.29,31.05-33.38,58.07-63.47,73.72-15.14,7.88-32.96,8.83-50.32,7.79-8.59-.51-16.82-3.2-23.8-8.28-5.49-4.01-8.43-6.75-11.8-13.09-6.99-13.17-11.09-27.45-11.92-42.33-1.13-20.14,1.29-40.52,3.32-60.58,4.15-40.98,6.6-82.96,22.34-121.02,1.86-4.49,3.81-8.94,5.83-13.36,1.05-2.3,7.76-10.53,5.42-11.9-2.02-1.18-6.21,6.42-7.26,8.73h0Z"/><circle class="cls-2" cx="73.92" cy="316.87" r="16.11"/><path class="cls-2" d="m430.54,117.98c15.86,34.7,20.25,74.94,25.45,112.73,2.58,18.74,5.28,37.71,5.09,56.62-.15,15.28-2.64,26.72-7.71,41.19-4.36,12.44-12.48,24.05-25.57,28.66-15.83,5.57-32.21,4.6-47.32-1.41-28.36-11.28-48.44-34.44-62.72-61.3-17.02-32.02-30.9-69.45-27.66-105.2.4-4.41.92-11.93,1.56-16.31.37-2.5,4.07-6.6,1.41-7.33-2.21-.61-3.83,5.44-4.2,7.96-5.67,38.37-3.23,78.26,12.21,114.2,13.05,30.37,36.33,57.08,65.99,72.13,15.39,7.81,33.38,13.44,50.8,12.17,9.02-.66,17.95-3.25,25.37-8.53,6.15-4.38,11.16-10.07,14.94-16.59,7.74-13.35,10.62-29.09,11.72-44.31,1.37-18.85.56-38.03-1.24-56.82-3.81-39.66-13.37-78.73-28.66-115.54-1.94-4.68-3.96-9.32-6.06-13.92-1.05-2.3-7.51-9.12-9.54-7.93-2.37,1.38,5.08,7.23,6.13,9.54h0Z"/><circle class="cls-2" cx="425.95" cy="300.76" r="16.11"/></g></svg>