<?xml version="1.0" encoding="UTF-8"?><svg id="Calque_2" xmlns="http://www.w3.org/2000/svg" viewBox="0 0 500 500"><defs><style>.cls-1{fill:#335ede;}.cls-1,.cls-2{stroke-width:0px;}.cls-2{fill:#ffdde2;}</style></defs><g id="Calque_1-2"><rect class="cls-1" width="500" height="500"/><path class="cls-2" d="m37.57,265.17c19.62,14.18,44.72,19.42,68.28,22.61,13.14,1.78,26.42,2.64,39.65,1.56,12.47-1.01,24.74-3.65,36.62-7.53,13.36-4.37,23.64-8.84,36.13-15.26,2.22-1.14,5.47-5.57,4.26-7.64-1.32-2.25-4.72,2.85-6.95,4-20.71,10.65-42.27,14.11-65.59,16.77-12.64,1.44-25.43,1.08-38.06-.36-11.94-1.36-23.89-3.57-35.49-6.7-12.18-3.29-25.24-4.02-35.52-11.45-2.02-1.46-9.54-9.25-10.72-7.24-1.36,2.33,5.36,9.78,7.39,11.24h0Z"/><circle class="cls-2" cx="133.18" cy="224.1" r="13.92"/><path class="cls-2" d="m462.43,265.17c-19.62,14.18-44.72,19.42-68.28,22.61-13.14,1.78-26.42,2.64-39.65,1.56-12.47-1.01-24.74-3.65-36.62-7.53-13.36-4.37-23.64-8.84-36.13-15.26-2.22-1.14-5.47-5.57-4.26-7.64,1.32-2.25,4.72,2.85,6.95,4,20.71,10.65,42.27,14.11,65.59,16.77,12.64,1.44,25.43,1.08,38.06-.36,11.94-1.36,23.89-3.57,35.49-6.7,12.18-3.29,25.24-4.02,35.52-11.45,2.02-1.46,9.54-9.25,10.72-7.24,1.36,2.33-5.36,9.78-7.39,11.24h0Z"/><circle class="cls-2" cx="366.82" cy="224.1" r="13.92"/></g></svg>