<?xml version="1.0" encoding="UTF-8"?><svg id="Calque_2" xmlns="http://www.w3.org/2000/svg" viewBox="0 0 500 500"><defs><style>.cls-1{fill:#335ede;}.cls-1,.cls-2{stroke-width:0px;}.cls-2{fill:#ffdde2;}</style></defs><g id="Calque_1-2"><rect class="cls-1" width="500" height="500"/><path class="cls-2" d="m202.9,369.34c-20,20.19-46.36,35.03-75.34,35.44-14.3.2-28.4-7.93-40.73-15.18-10.97-6.46-20.34-17.18-27.5-27.68-16.92-24.82-21.42-49.6-18.94-79.02,1.33-15.78,10.26-30.88,16.78-45.29,6.53-14.45,12.61-28.34,18.64-43.03,11.66-28.42,7.51-62.93,4.07-93.73-.44-3.96-2.48-8.7-4.96-11.83-2.63-3.33-2.68-3.33-2.68-3.33-2.65.73,2.54,6.5,3.02,9.04,5.9,30.84,1.52,62.65-9.56,91.64-5.63,14.74-13.16,28.56-19.85,42.81-3.5,7.47-6.76,15.09-9.23,22.97-2.55,8.16-4.15,16.57-5.17,25.05-3.73,30.92.39,64.54,16.83,91.49,7.23,11.86,16.74,22.28,28.12,30.27,12.33,8.66,26.74,13.62,41.71,14.99,30.87,2.81,54.3-10.35,77.2-30.35,2.75-2.4,3.82-4.92,6.39-7.51,4.32-4.36,5.53-11.1,1.2-6.74h0Z"/><circle class="cls-2" cx="88.58" cy="325.55" r="15.3"/><path class="cls-2" d="m297.1,369.34c20,20.19,46.36,35.03,75.34,35.44,14.3.2,28.4-7.93,40.73-15.18,10.97-6.46,20.34-17.18,27.5-27.68,16.92-24.82,21.42-49.6,18.94-79.02-1.33-15.78-10.26-30.88-16.78-45.29-6.53-14.45-12.61-28.34-18.64-43.03-11.66-28.42-7.51-62.93-4.07-93.73.44-3.96,2.48-8.7,4.96-11.83,2.63-3.33,2.68-3.33,2.68-3.33,2.65.73-2.54,6.5-3.02,9.04-5.9,30.84-1.52,62.65,9.56,91.64,5.63,14.74,13.16,28.56,19.85,42.81,3.5,7.47,6.76,15.09,9.23,22.97s4.15,16.57,5.17,25.05c3.73,30.92-.39,64.54-16.83,91.49-7.23,11.86-16.74,22.28-28.12,30.27-12.33,8.66-26.74,13.62-41.71,14.99-30.87,2.81-54.3-10.35-77.2-30.35-2.75-2.4-3.82-4.92-6.39-7.51-4.32-4.36-5.53-11.1-1.2-6.74h0Z"/><circle class="cls-2" cx="411.42" cy="325.55" r="15.3"/></g></svg>