<?xml version="1.0" encoding="UTF-8"?><svg id="Calque_2" xmlns="http://www.w3.org/2000/svg" viewBox="0 0 500 500"><defs><style>.cls-1{fill:#335ede;}.cls-1,.cls-2{stroke-width:0px;}.cls-2{fill:#ffdde2;}</style></defs><g id="Calque_1-2"><rect class="cls-1" width="500" height="500"/><path class="cls-2" d="m297.4,222.76c10.82,21.62,23.33,42.86,38.55,61.7,13.34,16.52,30.35,31.48,51.12,37.49,18.46,5.34,40.44,3.92,56.26-7.81,18.22-13.51,23.35-35.97,25.56-57.36,3.02-29.16,3.41-58.66,1.71-87.91-.15-2.61-2.12-11.31-4.85-11.31-2.51,0-1.77,8.68-1.62,11.31,1.49,25.61-5.2,51.3-7.19,76.88-1.5,19.26-3.2,41.83-17.6,56.35-12.25,12.35-28.11,15.27-44.62,11.78-19.32-4.08-35.29-16.89-48.12-31.72-7.7-8.89-14.36-18.63-20.65-28.55-7.33-11.56-22.14-28.35-28.27-40.59-1.17-2.34-2.86-6.23-5.02-4.97-2.38,1.39,3.55,12.36,4.72,14.71h0Z"/><path class="cls-2" d="m38.09,320.88c28.59-1.37,56.59-4.3,82.05-17.3,25.18-12.85,47.91-30.91,65.91-52.72,10.17-12.32,15.68-25.74,22.58-40.15,1.13-2.36,7.11-13.31,4.72-14.71-2.12-1.24-8.73,7.44-9.86,9.82-4.94,10.33-38.48,48.47-52.55,60.33-20.56,17.34-42.29,34.31-68.03,42.09-14.77,4.46-29.57,7.08-44.82,7.81-2.62.12-9.69,2.14-9.69,4.85,0,2.53,7.07.13,9.69,0h0Z"/><path class="cls-2" d="m56.6,300.42c-.92,13.75,2.28,27.58,8.93,39.63,3.02,5.46,6.54.58,3.52-4.89-5.86-10.63-10.03-24.26-9.22-36.35.17-2.61,2.49-9.69,0-9.69-2.77,0-3.06,8.69-3.23,11.31h0Z"/><path class="cls-2" d="m87.73,286.74c4.18,16.18,12.57,31.09,24.16,43.12,4.34,4.5,4.72.87.39-3.62-10.46-10.86-14.66-27.48-18.44-42.08-1.56-6.04-7.68-3.48-6.12,2.58h0Z"/><path class="cls-2" d="m122.58,271.24c11.84,7.49,19.99,15.69,30.81,24.6,2.02,1.66,6.49,6.82,8.47,4.85,1.71-1.71.41-5.18-1.62-6.85-11.46-9.43-23.47-18.18-36.01-26.11-2.21-1.4-6.96-3.69-8.25-1.49-1.36,2.33,4.37,3.61,6.59,5.02h0Z"/><path class="cls-2" d="m144.81,250.11c12.03,1.61,28.68,11.88,39.46,17.43,2.33,1.2,14.95.6,16.32-1.74,1.27-2.17-9.1-5.43-11.43-6.63-12.42-6.39-25.67-10.44-39.51-12.29-2.6-.35-14.54-2.37-14.54,0,0,2.91,7.09,2.88,9.69,3.23h0Z"/><path class="cls-2" d="m177.14,222.35c3.92-.32,7.86,1.05,11.8,1.03,3.56-.02,11.6-.39,14.69.1,7.28,1.18,12.68,5.75,17.37,11.32,1.69,2,5.11,1.74,6.85,0,1.98-1.98-1.54-3.23-3.23-5.24-11.47-13.6-31.28-13.36-47.48-12.06-2.61.21-11.31,2.08-11.31,4.85,0,2.46,8.68.21,11.31,0h0Z"/><circle class="cls-2" cx="417.7" cy="271.9" r="14.61"/></g></svg>