<?xml version="1.0" encoding="UTF-8"?><svg id="Calque_2" xmlns="http://www.w3.org/2000/svg" viewBox="0 0 500 500"><defs><style>.cls-1{fill:#335ede;}.cls-1,.cls-2{stroke-width:0px;}.cls-2{fill:#ffdde2;}</style></defs><g id="Calque_1-2"><rect class="cls-1" width="500" height="500"/><circle class="cls-2" cx="100.38" cy="296.91" r="17.3"/><path class="cls-2" d="m40.8,154.38c-3.25,29.02-12.79,58.21-11.66,87.46,1,25.88,4.79,53.4,17.5,76.39,5.62,10.16,13.28,19.3,23.07,25.65,11.1,7.2,24.74,10.2,37.87,9.54,26.89-1.35,53.92-16.42,72.16-35.38,9.39-9.75,17.61-20.57,25.46-31.57,7.5-10.49,8.19-21.14,13.45-32.96,1.45-3.26,2.8-6.56,4.07-9.9.91-2.39,2.15-8.34-.15-8.97-2.66-.73-4.91,4.06-5.82,6.46-4.41,11.59-10.24,22.52-17.31,32.71-7.18,10.36-14.57,20.63-22.82,30.17-16.12,18.62-36.34,34.69-61.17,39.11-11.64,2.07-24.38,1.08-35.12-4.09-9.59-4.61-14.01-12.11-19.67-20.99-12.87-20.2-17.02-45.45-18.54-69.04-1.81-28.07-2.38-56.18.66-84.07.38-3.51.77-7.01,1.17-10.51.28-2.54,2.35-7.88,0-7.88-2.79,0-2.87,5.33-3.15,7.88h0Z"/><circle class="cls-2" cx="399.62" cy="296.91" r="17.3"/><path class="cls-2" d="m459.2,154.38c3.25,29.02,12.79,58.21,11.66,87.46-1,25.88-4.79,53.4-17.5,76.39-5.62,10.16-13.28,19.3-23.07,25.65-11.1,7.2-24.74,10.2-37.87,9.54-26.89-1.35-53.92-16.42-72.16-35.38-9.39-9.75-17.61-20.57-25.46-31.57-7.5-10.49-8.19-21.14-13.45-32.96-1.45-3.26-2.8-6.56-4.07-9.9-.91-2.39-2.15-8.34.15-8.97,2.66-.73,4.91,4.06,5.82,6.46,4.41,11.59,10.24,22.52,17.31,32.71,7.18,10.36,14.57,20.63,22.82,30.17,16.12,18.62,36.34,34.69,61.17,39.11,11.64,2.07,24.38,1.08,35.12-4.09,9.59-4.61,14.01-12.11,19.67-20.99,12.87-20.2,17.02-45.45,18.54-69.04,1.81-28.07,2.38-56.18-.66-84.07-.38-3.51-.77-7.01-1.17-10.51-.28-2.54-2.35-7.88,0-7.88,2.79,0,2.87,5.33,3.15,7.88h0Z"/></g></svg>