<?xml version="1.0" encoding="UTF-8"?><svg id="Calque_2" xmlns="http://www.w3.org/2000/svg" viewBox="0 0 500 500"><defs><style>.cls-1{fill:#335ede;}.cls-1,.cls-2{stroke-width:0px;}.cls-2{fill:#ffdde2;}</style></defs><g id="Calque_1-2"><rect class="cls-1" width="500" height="500"/><path class="cls-2" d="m31.89,187.02c-8.9,33.28,3.77,69.42,28.06,93.02,12.19,11.85,26.93,20.69,42.74,26.82,15.48,6,32.4,9.56,49.03,9.46,18.05-.11,33.49-9.72,46.6-22.74,4.33-4.29.79-6.25-3.53-1.96-10.29,10.21-24.69,14.44-38.85,15.13-15.27.74-31.87-6.73-46.37-11.6-29.18-9.79-53.82-25.69-65.09-54.99-6.22-16.17-14.26-33.86-9.77-50.64,1.57-5.89-1.24-8.4-2.81-2.51h0Z"/><circle class="cls-2" cx="115.94" cy="233.97" r="15.97"/><path class="cls-2" d="m468.11,187.02c8.9,33.28-3.77,69.42-28.06,93.02-12.19,11.85-26.93,20.69-42.74,26.82-15.48,6-32.4,9.56-49.03,9.46-18.05-.11-33.49-9.72-46.6-22.74-4.33-4.29-.79-6.25,3.53-1.96,10.29,10.21,24.69,14.44,38.85,15.13,15.27.74,31.87-6.73,46.37-11.6,29.18-9.79,53.82-25.69,65.09-54.99,6.22-16.17,14.26-33.86,9.77-50.64-1.57-5.89,1.24-8.4,2.81-2.51h0Z"/><circle class="cls-2" cx="384.06" cy="233.97" r="15.97"/></g></svg>