<?xml version="1.0" encoding="UTF-8"?><svg id="Calque_2" xmlns="http://www.w3.org/2000/svg" viewBox="0 0 500 500"><defs><style>.cls-1{fill:#335ede;}.cls-1,.cls-2{stroke-width:0px;}.cls-2{fill:#ffdde2;}</style></defs><g id="Calque_1-2"><rect class="cls-1" width="500" height="500"/><path class="cls-2" d="m212,333.67c-17.59,15.51-41.04,23.71-64.28,24.03-23.7.33-44.53-12.61-62.65-28.2-18.42-15.85-33.43-32.63-40.02-55.88-1.33-4.67-2.37-9.41-3.14-14.2-.18-1.14-.35-2.29-.52-3.43-.11-.79.08.63-.02-.17-.03-.24-.06-.47-.09-.71-.09-.72-.18-1.44-.26-2.16-.3-2.58-.55-5.16-.76-7.75-.93-11.46-1.11-22.98-.85-34.47.27-11.85-.53-23.7.76-35.49,1.09-9.98.3-10.07,1.51-22.76.21-2.16.07-11.72.66-13.8,1.62-5.78-1.42-8.12-3.04-2.35-2.81,10.01-4.51,20.31-5.88,30.6-1.59,11.95-2.58,23.99-3.08,36.03-.49,11.98-.51,23.99.17,35.96.6,10.53,1.66,21.16,4.07,31.44,5.79,24.71,18.49,48.36,36.74,66.09,18.54,18.02,42.52,28.79,68.34,30.37,25.01,1.53,46.1-6.62,66.35-21.52,2.64-1.94,7.18-5.75,9.64-7.92,1.89-1.66,2.56-3.2.86-4.9-1.87-1.87-2.62-.48-4.52,1.19h0Z"/><circle class="cls-2" cx="119.47" cy="256.58" r="15.54"/><path class="cls-2" d="m345.45,255.15c-2.06,3.52-2.45,7.91-1.18,11.79,1.32,4.03,4.03,7.24,7.58,9.52,6.51,4.18,15.62,5.15,22.71,2.05,6.94-3.03,9.8-10.4,8.51-17.54-1.21-6.71-6.28-12.21-12.76-14.16-8.26-2.48-17.27.7-23.49,6.28-1.82,1.63-1.78,4.95,0,6.58,1.94,1.78,4.64,1.74,6.58,0,.29-.26.59-.52.89-.77.67-.56.13-.1,0,0,.54-.38,1.08-.75,1.64-1.1s1.14-.66,1.73-.95c-.01,0,1.16-.55.52-.26-.51.23.78-.29.91-.34,1.23-.43,2.5-.75,3.8-.94-.18.03-.96.08-.08.03.39-.02.77-.05,1.16-.06.64-.01,1.28.03,1.92.06,1.25.05-.95-.22.28.04.25.05.5.1.75.16.63.15,1.23.34,1.83.55,1.17.4-.77-.47.31.14.21.12.42.22.63.33.28.16.54.34.82.51.78.47-.65-.62.08.05.39.36.79.71,1.15,1.11.15.16.28.32.42.48.73.81-.52-.85.05.08.28.46.58.9.84,1.38.1.19.19.39.29.58.44.81-.27-.91.09.22.15.46.31.91.43,1.38.08.31.14.62.21.93.22.92-.06-.31-.02-.3.15.07.09,1.34.09,1.57,0,.31-.03.62-.03.94-.02.93.23-.99.01-.01-.11.5-.21,1-.38,1.49.01-.03-.18.57-.21.58.1,0,.46-.95-.05,0-.1.18-.2.36-.31.53l-.17.26c-.29.41-.24.34.16-.19,0,.06-.42.47-.42.47-.11.11-1.07.99-.65.64.52-.43-.49.32-.49.32-.22.14-.45.27-.68.39-.16.08-1.32.55-.31.18-.25.09-.49.18-.74.26-.63.2-1.28.33-1.93.48-1.25.29.93-.02-.36.05-.4.02-.81.06-1.21.07-.68.02-1.35,0-2.03-.05-.27-.02-.54-.05-.81-.07-1.32-.11.93.2-.36-.06-1.44-.29-2.84-.62-4.22-1.14-.22-.08-1.04-.48-.23-.09-.37-.18-.75-.36-1.11-.56s-.72-.41-1.07-.63c-.17-.11-1.14-.82-.39-.23-.65-.51-1.21-1.11-1.78-1.7-.16-.17-.47-.71-.01,0-.25-.39-.5-.76-.72-1.16-.16-.29-.31-.58-.44-.88.41.95,0-.14-.07-.36-.11-.38-.18-.76-.27-1.14.18.79.01.15,0-.3-.01-.32,0-.64,0-.96,0-.19.02-.38.05-.57-.08.61-.07.64.03.11.08-.23.14-.5.21-.73.18-.5.17-.48-.03.05.11-.23.24-.46.37-.68,1.23-2.1.55-5.2-1.67-6.37s-5.06-.58-6.37,1.67h0Z"/><path class="cls-2" d="m357.07,249.86c-7.02-10.6-19.21-21.64-23.99-33.28-.92-2.24-1.83-5.12-2.07-7.21-.13-1.09-.15-2.73-.03-3.53.15-.98.47-1.91,1.01-2.77,1.18-1.89,8.64-3.07,10.84-4.1,3.22-1.51,6.43-3.02,9.65-4.53,6.66-3.13,13.33-6.26,19.99-9.39,2.93-1.38,5.84-2.87,8.94-3.83,1.39-.43,2.79-.77,4.25-.8,1.11-.02,2.85.31,3.36.54,3.72,1.63,5.9,6.11,6.16,9.9.42,6.18-2.36,12.03-5.2,17.34-7.16,13.4-15.66,26.12-25.31,37.86-1.59,1.94-1.9,4.68,0,6.58,1.64,1.64,4.98,1.95,6.58,0,9.79-11.92,18.53-24.67,25.93-38.21,3.66-6.69,7.08-13.81,7.33-21.58.2-6.23-2.17-13.02-6.89-17.23-5.98-5.34-13.87-5.35-21.05-2.56-7.59,2.94-14.88,6.79-22.25,10.25-3.68,1.73-7.35,3.45-11.03,5.18-3.27,1.54-6.83,2.87-9.82,4.91-6.35,4.32-7.97,11.38-6.77,18.63,1.27,7.67,5.49,15.02,9.25,21.72,4.01,7.15,8.54,13.98,13.06,20.81,1.39,2.09,4.11,2.99,6.37,1.67,2.08-1.22,3.06-4.26,1.67-6.37h0Z"/><path class="cls-2" d="m375.57,251.07c1.33-7.85,6.04-14.28,11.06-20.25,5.06-6.01,10.3-11.92,16.18-17.16,5.53-4.93,11.84-9.33,18.88-11.8,1.38-.49,2.79-.89,4.22-1.22,1.6-.37,3.02-.59,4.17-.69,1.56-.14,3.14-.19,4.7-.16.78.02,1.57.06,2.35.13,1.17.1,1.07.08,2.11.25,1.52.26,3.03.61,4.51,1.06,1.5.45,2.58.86,3.62,1.35,1.35.65,2.66,1.39,3.9,2.23.85.58.65.41,1.43,1.08.63.54,1.24,1.1,1.81,1.7,4.57,4.72,10.97,11.9,10.85,18.88-.13,7.21-1.39,15.25-4.53,21.8-3.3,6.89-13.62,10.98-20.8,13.29-19.25,6.2-40.23,3.29-59.86.8-2.5-.32-4.66,2.37-4.66,4.66,0,2.78,2.15,4.34,4.66,4.66,19.61,2.49,39.83,4.88,59.25-.23,9.04-2.38,17.43-6.78,22.7-14.74,4.83-7.29,6.62-16.41,7.56-24.96.97-8.84.09-18.46-4.88-26.08-4.14-6.35-10.46-10.71-17.59-13.1-15.42-5.16-31.78-.26-44.42,9.19-7.82,5.85-14.5,12.9-20.85,20.28-6.66,7.76-13.58,16.18-15.33,26.57-.42,2.48.65,5.01,3.25,5.73,2.23.61,5.31-.76,5.73-3.25h0Z"/><path class="cls-2" d="m379,274.3c13.5-.78,27.22-.48,40.31,3.21,5.47,1.55,14.75,3.6,19.11,7.15,2,1.63,3.43,3.35,4.01,5.37.16.55.24,1.63.09,2.36-.29,1.36-.7,2.14-1.61,3.32-1.37,1.77-6.72,3.5-8.73,4.87-3,2.05-6.07,3.99-9.11,5.98-5.81,3.81-11.55,7.84-17.66,11.15-5.28,2.85-14.16,8.15-20.25,7.84-5.07-.26-10.42-2.56-13.78-6.65-3.84-4.67-1.32-14.02-1.35-19.9-.03-7.05.78-14.1.03-21.14-.26-2.5-1.95-4.66-4.66-4.66-2.31,0-4.92,2.14-4.66,4.66,1.43,13.53-3.05,28.59,4.51,40.94,3.77,6.16,10.1,10.46,17.09,12.13s14.73.59,21.56-2.24c7.29-3.02,13.78-7.48,20.34-11.78,3.52-2.3,7.03-4.6,10.55-6.91,2.89-1.89,5.81-3.86,8.27-6.3,5.36-5.31,7.45-12.79,3.8-19.69-3.32-6.27-10.05-9.83-16.33-12.44-16.2-6.72-34.24-7.58-51.54-6.59-2.51.14-4.66,2.04-4.66,4.66,0,2.41,2.13,4.8,4.66,4.66h0Z"/><path class="cls-2" d="m348.8,265.05c-13.19-1.1-26.48-.32-39.48,2.21-3.21.62-6.38,1.38-9.54,2.21-2.53.66-5.08,1.35-7.71,1.34-1.99-.01-3.86-.56-5.24-2.22-1.5-1.81-5.32-4.26-5.79-6.54-1.1-5.24,3-10.75,4.8-15.72,1.74-4.82,4.54-9.95,8.59-13.2,4.23-3.39,10.04-5.47,15.26-5.59,5.7-.14,11.34,2.03,16.77,3.84,5.49,1.83,9.93,4.86,13.47,9.41,1.63,2.1,3.08,4.54,4.12,6.95s1.79,5.33,1.94,7.51c.17,2.51,2.02,4.66,4.66,4.66,2.38,0,4.83-2.13,4.66-4.66-.86-12.39-8.94-24.67-20.08-30.24-6.31-3.16-13.19-4.71-20.2-5.14-6.76-.41-14.13-.07-20.45,2.56-6.48,2.7-11.1,7.96-14.42,14.04-3.35,6.16-5.54,13.05-5.74,20.09-.19,6.59,1.47,14.2,6.23,19.04,5.23,5.33,12.74,4.97,19.47,3.38,7.84-1.86,15.56-3.71,23.6-4.48,8.34-.8,16.74-.83,25.08-.13,2.51.21,4.66-2.29,4.66-4.66,0-2.69-2.14-4.45-4.66-4.66h0Z"/><path class="cls-2" d="m350.82,264.8c-14.67-.53-29.58,4.99-40.74,14.42-11.72,9.89-22.27,22.45-23.23,38.43-.44,7.32,1.52,15.96,7.01,21.17,3.05,2.9,6.91,4.24,11,4.86,4.35.66,8.74,1.12,13.14,1.34,7.86.39,17.3,1.09,24.17-3.45,6.31-4.17,10.49-11.13,14.3-17.49,8.46-14.14,13.27-29.7,13.59-46.22.12-5.99-9.19-5.99-9.31,0-.24,12.41-3.23,24.39-8.93,35.43-2.83,5.48-6.04,11.06-9.9,15.88-1.78,2.22-3.91,4.45-6.59,5.56-2.92,1.21-6.35,1.08-9.44,1.12-7.07.09-14.68,0-21.57-1.73-5.71-1.43-12.51-7.46-12.83-12.88-.78-13.3,7.93-24.2,17.27-32.62,10.23-9.22,28-15.01,42.05-14.51,5.99.21,5.98-9.1,0-9.31h0Z"/></g></svg>