<?xml version="1.0" encoding="UTF-8"?><svg id="Calque_2" xmlns="http://www.w3.org/2000/svg" viewBox="0 0 500 500"><defs><style>.cls-1{fill:#335ede;}.cls-1,.cls-2{stroke-width:0px;}.cls-2{fill:#ffdde2;}</style></defs><g id="Calque_1-2"><rect class="cls-1" width="500" height="500"/><path class="cls-2" d="m58,158.96c-2.85,26.14-16.63,50.12-23.37,75.3-3.33,12.44-5.44,25.45-4.37,38.35,1.1,13.18,5.32,25.98,12.54,37.09,13.57,20.9,35.98,33.42,60.22,37.54,12.07,2.05,24.34,2.39,36.52,1.31s25.3-3.35,37.28-7.36c6.51-2.18,12.93-5,18.51-9.03,5.23-3.78,9.62-8.32,13.41-13.53,7.15-9.82,11.46-21.52,15.05-33.02.9-2.89,1.76-5.79,2.6-8.69,1.76-6.02-2.77-15.08-4.52-9.07-3.21,11-16.23,28.6-21.82,38.65-2.65,4.77-5.69,9.11-9.54,12.95-4.29,4.28-9.36,7.48-14.87,9.96-10.56,4.76-18.05,7.15-29.29,8.66-11.49,1.54-23.23,1.86-34.76.62-21.74-2.33-41.74-14.75-55.54-32.54-7.3-9.41-10.46-17.44-12.33-29.19s-3.67-23.79-.96-35.25c5.83-24.69,12.47-47.73,17.02-72.77.6-3.31,1.07-6.65,1.43-9.99.29-2.62.8-8.11-1.62-8.11-2.87,0-1.34,5.49-1.62,8.11h0Z"/><circle class="cls-2" cx="108.4" cy="300.49" r="14.67"/><path class="cls-2" d="m442,158.96c2.85,26.14,16.63,50.12,23.37,75.3,3.33,12.44,5.44,25.45,4.37,38.35-1.1,13.18-5.32,25.98-12.54,37.09-13.57,20.9-35.98,33.42-60.22,37.54-12.07,2.05-24.34,2.39-36.52,1.31-12.56-1.12-25.3-3.35-37.28-7.36-6.51-2.18-12.93-5-18.51-9.03-5.23-3.78-9.62-8.32-13.41-13.53-7.15-9.82-11.46-21.52-15.05-33.02-.9-2.89-1.76-5.79-2.6-8.69-1.76-6.02,2.77-15.08,4.52-9.07,3.21,11,16.23,28.6,21.82,38.65,2.65,4.77,5.69,9.11,9.54,12.95,4.29,4.28,9.36,7.48,14.87,9.96,10.56,4.76,18.05,7.15,29.29,8.66,11.49,1.54,23.23,1.86,34.76.62,21.74-2.33,41.74-14.75,55.54-32.54,7.3-9.41,10.46-17.44,12.33-29.19,1.86-11.72,3.67-23.79.96-35.25-5.83-24.69-12.47-47.73-17.02-72.77-.6-3.31-1.07-6.65-1.43-9.99-.29-2.62-.8-8.11,1.62-8.11,2.87,0,1.34,5.49,1.62,8.11h0Z"/><circle class="cls-2" cx="391.6" cy="300.49" r="14.67"/></g></svg>