<?xml version="1.0" encoding="UTF-8"?><svg id="Calque_2" xmlns="http://www.w3.org/2000/svg" viewBox="0 0 571.87 369.35"><defs><style>.cls-1{fill:#ffdde2;stroke-width:0px;}</style></defs><g id="Calque_1-2"><path class="cls-1" d="m51.11,11.48C27.81,62.47,12.26,116.63,4.87,172.2,1.19,199.87-.43,227.81.1,255.71c.41,21.63,2.42,43.88,10.36,64.19,8.13,20.8,22.63,38.48,44.39,45.66,23.91,7.89,51.1,2.38,73.91-6.65,43.08-17.05,78.31-51,99.96-91.68,25.15-47.28,32.27-102.56,27.25-155.39-.65-6.79-1.5-13.56-2.5-20.31-.48-3.25-2.56-13.14-5.45-12.35-3.48.96,1.35,8.27,1.83,11.53,7.42,50.16-7.94,107.49-28.07,154.49-17.23,40.25-43.26,75.26-82.27,95.55-19.63,10.21-42.72,11.44-65.23,10.1-11.14-.66-21.81-4.14-30.85-10.73-7.12-5.19-10.93-8.75-15.29-16.96-9.06-17.07-14.37-35.58-15.45-54.87-1.47-26.11,1.67-52.52,4.3-78.52,5.37-53.12,8.55-107.53,28.96-156.86,2.41-5.82,4.94-11.58,7.56-17.31,1.36-2.98,10.05-13.65,7.02-15.43-2.61-1.53-8.04,8.32-9.42,11.32h0Z"/><circle class="cls-1" cx="57.71" cy="271.35" r="20.88"/><path class="cls-1" d="m519.94,13.56c20.55,44.98,26.25,97.14,32.98,146.12,3.34,24.29,6.85,48.87,6.6,73.39-.2,19.8-3.42,34.63-9.99,53.38-5.65,16.12-16.18,31.17-33.14,37.15-20.52,7.22-41.75,5.96-61.33-1.83-36.76-14.62-62.78-44.64-81.29-79.45-22.07-41.51-40.05-90.02-35.85-136.36.52-5.72,1.19-15.47,2.03-21.14.48-3.24,5.27-8.56,1.83-9.5-2.86-.79-4.97,7.05-5.45,10.32-7.35,49.74-4.19,101.44,15.82,148.01,16.91,39.37,47.09,73.99,85.53,93.49,19.94,10.12,43.27,17.42,65.85,15.77,11.69-.85,23.26-4.21,32.89-11.06,7.98-5.67,14.46-13.05,19.37-21.5,10.03-17.31,13.76-37.71,15.19-57.43,1.77-24.43.72-49.29-1.61-73.65-4.93-51.41-17.34-102.05-37.15-149.75-2.52-6.06-5.13-12.08-7.86-18.05-1.36-2.99-9.74-11.82-12.37-10.28-3.07,1.79,6.58,9.37,7.95,12.37h0Z"/><circle class="cls-1" cx="513.99" cy="250.47" r="20.88"/></g></svg>