<?xml version="1.0" encoding="UTF-8"?><svg id="Calque_2" xmlns="http://www.w3.org/2000/svg" viewBox="0 0 579.24 104.84"><defs><style>.cls-1{fill:#ffdde2;stroke-width:0px;}</style></defs><g id="Calque_1-2"><path class="cls-1" d="m9.96,72.39c25.83,18.67,58.88,25.56,89.88,29.77,17.3,2.35,34.77,3.47,52.2,2.05,16.41-1.33,32.57-4.81,48.21-9.91,17.59-5.75,31.12-11.64,47.56-20.1,2.92-1.5,7.2-7.33,5.61-10.06-1.73-2.96-6.22,3.76-9.15,5.26-27.26,14.02-55.65,18.57-86.34,22.08-16.64,1.9-33.48,1.42-50.1-.47-15.71-1.79-31.45-4.7-46.72-8.82-16.04-4.33-33.23-5.29-46.76-15.07-2.66-1.92-12.57-12.17-14.11-9.53-1.79,3.07,7.06,12.87,9.72,14.8h0Z"/><circle class="cls-1" cx="135.83" cy="18.32" r="18.32"/><path class="cls-1" d="m569.28,72.39c-25.83,18.67-58.88,25.56-89.88,29.77-17.3,2.35-34.77,3.47-52.2,2.05-16.41-1.33-32.57-4.81-48.21-9.91-17.59-5.75-31.12-11.64-47.56-20.1-2.92-1.5-7.2-7.33-5.61-10.06,1.73-2.96,6.22,3.76,9.15,5.26,27.26,14.02,55.65,18.57,86.34,22.08,16.64,1.9,33.48,1.42,50.1-.47,15.71-1.79,31.45-4.7,46.72-8.82,16.04-4.33,33.23-5.29,46.76-15.07,2.66-1.92,12.57-12.17,14.11-9.53,1.79,3.07-7.06,12.87-9.72,14.8h0Z"/><circle class="cls-1" cx="443.41" cy="18.32" r="18.32"/></g></svg>