<?xml version="1.0" encoding="UTF-8"?><svg id="Calque_2" xmlns="http://www.w3.org/2000/svg" viewBox="0 0 555.74 231.81"><defs><style>.cls-1{fill:#ffdde2;stroke-width:0px;}</style></defs><g id="Calque_1-2"><path class="cls-1" d="m337.3,81.75c13.57,27.11,29.25,53.74,48.34,77.37,16.73,20.72,38.05,39.47,64.1,47.01,23.14,6.7,50.71,4.91,70.54-9.8,22.84-16.94,29.28-45.1,32.05-71.92,3.78-36.56,4.28-73.55,2.14-110.23-.19-3.28-2.66-14.18-6.08-14.18-3.14,0-2.22,10.89-2.03,14.18,1.87,32.11-6.51,64.33-9.02,96.4-1.89,24.16-4.01,52.45-22.06,70.65-15.36,15.49-35.25,19.15-55.95,14.77-24.23-5.11-44.25-21.17-60.34-39.77-9.65-11.15-18-23.36-25.89-35.8-9.19-14.5-27.76-35.55-35.44-50.9-1.47-2.93-3.59-7.81-6.29-6.23-2.99,1.75,4.45,15.5,5.92,18.44h0Z"/><path class="cls-1" d="m12.15,204.77c35.85-1.71,70.95-5.39,102.89-21.69,31.57-16.12,60.07-38.76,82.65-66.11,12.75-15.44,19.66-32.28,28.31-50.35,1.42-2.96,8.92-16.69,5.92-18.44-2.65-1.55-10.94,9.34-12.37,12.31-6.19,12.95-48.25,60.78-65.89,75.65-25.78,21.74-53.02,43.03-85.3,52.77-18.52,5.59-37.08,8.87-56.2,9.79-3.28.16-12.15,2.68-12.15,6.08,0,3.17,8.86.16,12.15,0h0Z"/><path class="cls-1" d="m35.37,179.12c-1.15,17.24,2.86,34.58,11.2,49.69,3.78,6.85,8.2.73,4.42-6.13-7.35-13.32-12.58-30.42-11.57-45.58.22-3.28,3.13-12.15,0-12.15-3.47,0-3.83,10.89-4.05,14.18h0Z"/><path class="cls-1" d="m74.4,161.97c5.24,20.29,15.76,38.99,30.29,54.07,5.44,5.64,5.92,1.09.49-4.54-13.12-13.62-18.39-34.46-23.12-52.76-1.96-7.57-9.63-4.36-7.67,3.23h0Z"/><path class="cls-1" d="m118.09,142.54c14.85,9.4,25.07,19.67,38.64,30.84,2.53,2.08,8.14,8.56,10.62,6.08,2.15-2.15.52-6.5-2.03-8.59-14.36-11.83-29.42-22.79-45.15-32.74-2.77-1.76-8.73-4.63-10.34-1.87-1.71,2.93,5.48,4.53,8.26,6.29h0Z"/><path class="cls-1" d="m145.97,116.05c15.08,2.01,35.96,14.89,49.48,21.85,2.92,1.5,18.75.76,20.47-2.18,1.59-2.72-11.41-6.81-14.33-8.31-15.58-8.02-32.19-13.09-49.54-15.41-3.26-.43-18.23-2.97-18.23,0,0,3.64,8.89,3.62,12.15,4.05h0Z"/><path class="cls-1" d="m186.51,81.24c4.92-.4,9.85,1.32,14.79,1.29,4.46-.03,14.54-.5,18.42.13,9.13,1.47,15.9,7.21,21.78,14.19,2.12,2.51,6.41,2.18,8.59,0,2.49-2.49-1.93-4.05-4.05-6.57-14.38-17.06-39.23-16.76-59.53-15.12-3.27.26-14.18,2.6-14.18,6.08,0,3.08,10.89.26,14.18,0h0Z"/><circle class="cls-1" cx="488.15" cy="143.37" r="18.32"/></g></svg>