<?xml version="1.0" encoding="UTF-8"?><svg id="Calque_2" xmlns="http://www.w3.org/2000/svg" viewBox="0 0 567.93 170.49"><defs><style>.cls-1{fill:#ffdde2;stroke-width:0px;}</style></defs><g id="Calque_1-2"><path class="cls-1" d="m3.66,4.31c-11.44,42.77,4.84,89.21,36.06,119.55,15.67,15.23,34.61,26.59,54.93,34.46,19.89,7.71,41.63,12.29,63.01,12.16,23.2-.14,43.04-12.49,59.89-29.22,5.56-5.52,1.02-8.04-4.54-2.52-13.22,13.13-31.73,18.56-49.93,19.44-19.62.95-40.96-8.65-59.59-14.9-37.51-12.59-69.17-33.01-83.65-70.67C11.85,51.84,1.51,29.1,7.28,7.54,9.3-.03,5.69-3.25,3.66,4.31h0Z"/><circle class="cls-1" cx="111.67" cy="64.64" r="20.52"/><path class="cls-1" d="m564.27,4.31c11.44,42.77-4.84,89.21-36.06,119.55-15.67,15.23-34.61,26.59-54.93,34.46s-41.63,12.29-63.01,12.16c-23.2-.14-43.04-12.49-59.89-29.22-5.56-5.52-1.02-8.04,4.54-2.52,13.22,13.13,31.73,18.56,49.93,19.44,19.62.95,40.96-8.65,59.59-14.9,37.51-12.59,69.17-33.01,83.65-70.67,7.99-20.78,18.33-43.51,12.56-65.08-2.02-7.56,1.59-10.79,3.62-3.23h0Z"/><circle class="cls-1" cx="456.26" cy="64.64" r="20.52"/></g></svg>