<?xml version="1.0" encoding="UTF-8"?><svg id="Calque_2" xmlns="http://www.w3.org/2000/svg" viewBox="0 0 567.68 265.93"><defs><style>.cls-1{fill:#ffdde2;stroke-width:0px;}</style></defs><g id="Calque_1-2"><circle class="cls-1" cx="91.64" cy="193.22" r="22.23"/><path class="cls-1" d="m15.1,10.13C10.92,47.41-1.33,84.9.12,122.48c1.29,33.25,6.16,68.6,22.48,98.13,7.22,13.05,17.06,24.79,29.64,32.95,14.26,9.25,31.78,13.11,48.65,12.26,34.55-1.74,69.26-21.1,92.7-45.45,12.06-12.53,22.62-26.43,32.71-40.56,9.63-13.48,10.52-27.16,17.27-42.34,1.86-4.19,3.6-8.43,5.23-12.72,1.17-3.07,2.76-10.72-.19-11.53-3.42-.94-6.31,5.22-7.48,8.3-5.66,14.89-13.16,28.92-22.23,42.02-9.23,13.31-18.71,26.5-29.32,38.76-20.7,23.93-46.69,44.56-78.58,50.24-14.95,2.66-31.32,1.38-45.12-5.25-12.32-5.92-18-15.56-25.27-26.97-16.53-25.95-21.86-58.38-23.81-88.68-2.32-36.05-3.06-72.17.85-108,.49-4.5,1-9.01,1.5-13.51.37-3.27,3.02-10.13,0-10.13-3.59,0-3.68,6.85-4.05,10.13h0Z"/><circle class="cls-1" cx="476.04" cy="193.22" r="22.23"/><path class="cls-1" d="m552.58,10.13c4.18,37.28,16.43,74.78,14.98,112.35-1.29,33.25-6.16,68.6-22.48,98.13-7.22,13.05-17.06,24.79-29.64,32.95-14.26,9.25-31.78,13.11-48.65,12.26-34.55-1.74-69.26-21.1-92.7-45.45-12.06-12.53-22.62-26.43-32.71-40.56-9.63-13.48-10.52-27.16-17.27-42.34-1.86-4.19-3.6-8.43-5.23-12.72-1.17-3.07-2.76-10.72.19-11.53,3.42-.94,6.31,5.22,7.48,8.3,5.66,14.89,13.16,28.92,22.23,42.02,9.23,13.31,18.71,26.5,29.32,38.76,20.7,23.93,46.69,44.56,78.58,50.24,14.95,2.66,31.32,1.38,45.12-5.25,12.32-5.92,18-15.56,25.27-26.97,16.53-25.95,21.86-58.38,23.81-88.68,2.32-36.05,3.06-72.17-.85-108-.49-4.5-1-9.01-1.5-13.51-.37-3.27-3.02-10.13,0-10.13,3.59,0,3.68,6.85,4.05,10.13h0Z"/></g></svg>