<?xml version="1.0" encoding="UTF-8"?><svg id="Calque_2" xmlns="http://www.w3.org/2000/svg" viewBox="0 0 549.63 247.69"><defs><style>.cls-1{fill:#ffdde2;stroke-width:0px;}</style></defs><g id="Calque_1-2"><path class="cls-1" d="m34.99,10.13c-3.56,32.65-20.78,62.6-29.19,94.05C1.65,119.71-.99,135.97.35,152.08c1.38,16.46,6.65,32.46,15.66,46.33,16.95,26.1,44.94,41.75,75.22,46.89,15.07,2.56,30.4,2.99,45.62,1.63,15.69-1.39,31.61-4.19,46.56-9.19,8.13-2.72,16.15-6.24,23.12-11.28,6.54-4.72,12.01-10.39,16.75-16.9,8.93-12.27,14.31-26.88,18.8-41.25,1.13-3.61,2.19-7.23,3.25-10.86,2.19-7.52-3.45-18.84-5.64-11.33-4.01,13.74-20.28,35.72-27.25,48.28-3.31,5.96-7.1,11.38-11.91,16.18-5.35,5.34-11.69,9.35-18.57,12.45-13.19,5.94-22.55,8.94-36.59,10.82-14.36,1.93-29.01,2.33-43.42.78-27.15-2.91-52.13-18.42-69.37-40.64-9.12-11.76-13.07-21.78-15.4-36.46s-4.58-29.71-1.2-44.03c7.29-30.84,15.58-59.62,21.26-90.89.75-4.13,1.34-8.3,1.79-12.48.36-3.27,1-10.13-2.03-10.13-3.58,0-1.67,6.85-2.03,10.13h0Z"/><circle class="cls-1" cx="97.95" cy="186.91" r="18.32"/><path class="cls-1" d="m514.64,10.13c3.56,32.65,20.78,62.6,29.19,94.05,4.15,15.53,6.8,31.79,5.45,47.9-1.38,16.46-6.65,32.46-15.66,46.33-16.95,26.1-44.94,41.75-75.22,46.89-15.07,2.56-30.4,2.99-45.62,1.63-15.69-1.39-31.61-4.19-46.56-9.19-8.13-2.72-16.15-6.24-23.12-11.28-6.54-4.72-12.01-10.39-16.75-16.9-8.93-12.27-14.31-26.88-18.8-41.25-1.13-3.61-2.19-7.23-3.25-10.86-2.19-7.52,3.45-18.84,5.64-11.33,4.01,13.74,20.28,35.72,27.25,48.28,3.31,5.96,7.1,11.38,11.91,16.18,5.35,5.34,11.69,9.35,18.57,12.45,13.19,5.94,22.55,8.94,36.59,10.82,14.36,1.93,29.01,2.33,43.42.78,27.15-2.91,52.13-18.42,69.37-40.64,9.12-11.76,13.07-21.78,15.4-36.46,2.32-14.63,4.58-29.71,1.2-44.03-7.29-30.84-15.58-59.62-21.26-90.89-.75-4.13-1.34-8.3-1.79-12.48C510.23,6.86,509.58,0,512.61,0c3.58,0,1.67,6.85,2.03,10.13h0Z"/><circle class="cls-1" cx="451.68" cy="186.91" r="18.32"/></g></svg>